<svg width="57" height="65" viewBox="0 0 57 65" fill="none" xmlns="http://www.w3.org/2000/svg">
<path d="M3.46149e-08 22.9793L4.45313 22.9793L4.45313 41.9373L6.31722e-08 41.9373L3.46149e-08 22.9793ZM8.79492 53.427L13.248 53.427L13.248 11.4897L8.79492 11.4897L8.79492 53.427ZM17.4785 64.9167L21.9316 64.9167L21.9316 -3.30367e-08L17.4785 -2.63287e-08L17.4785 64.9167ZM26.1621 41.9373L30.6152 41.9373L30.6152 22.9793L26.1621 22.9793L26.1621 41.9373ZM34.957 57.7356L39.4102 57.7356L39.4102 7.18105L34.957 7.18105L34.957 57.7356ZM52.5469 22.9793L52.5469 43.3735L57 43.3735L57 22.9793L52.5469 22.9793ZM43.7519 64.9167L48.2051 64.9167L48.2051 -7.26136e-08L43.7519 -6.59056e-08L43.7519 64.9167Z" fill="#BBBFB0" fill-opacity="1"/>
</svg>
