<svg width="221" height="45" preserveAspectRatio="none" viewBox="0 0 221 45" fill="none" xmlns="http://www.w3.org/2000/svg">
<path d="M45.0569 4.16055C65.0168 1.77024 89.2922 6.16082 109.431 3.66049C133.574 0.280037 159.684 0.30004 183.796 0C183.796 1.82024 181.821 4.56061 183.835 5.45073C191.899 8.07108 191.938 11.7116 191.969 15.342C191.969 17.1623 185.919 15.4121 187.949 17.2023C181.907 17.2923 171.822 18.2824 177.887 20.0427C179.916 21.8529 187.995 19.9227 190.009 22.633C192.023 25.3434 188.034 28.1037 190.071 30.8041L198.158 30.6841C200.195 32.4643 196.183 36.1648 198.212 36.1348C204.293 37.865 212.379 36.7949 220.466 36.6249C220.466 38.4451 222.542 40.2154 218.507 41.2055C147.695 44.5759 74.6585 47.4663 3.85417 41.7456C-4.21687 40.5054 1.95693 37.1249 8.08408 34.6446C6.03911 35.4747 6.10909 32.7544 4.06411 33.5745C4.13409 30.8941 8.28625 26.4935 16.3884 25.8934L10.3312 25.6534C8.3329 24.6533 10.3934 22.9331 10.4401 21.1128C12.454 21.2028 14.4756 21.2828 14.4912 20.3727C14.5067 19.4626 14.5611 17.6523 14.5767 16.7422L6.5212 16.4122C8.53507 16.4922 10.5489 16.5822 10.5723 15.6721C10.5956 14.762 10.6345 12.9517 10.6578 12.0416C14.7089 11.3115 20.7038 13.3318 24.7549 12.5717L24.8171 9.89132C20.8049 8.83118 14.7089 9.53127 10.7278 9.36125C12.765 8.53114 12.7805 7.62101 12.8272 5.81077C18.8766 5.13068 24.856 8.08108 30.9443 5.57074L24.9415 5.3107C29.0315 0.890116 39.0075 4.89065 45.0569 4.16055Z" fill="#FFD04E"/>
</svg>
