<svg width="15" height="15" viewBox="0 0 15 15" fill="none" xmlns="http://www.w3.org/2000/svg">
<path d="M14.0862 11.1818L10.2224 7.318L14.0862 3.45416C14.5603 2.98004 14.5603 2.21103 14.0862 1.7369L13.2276 0.878273C12.7535 0.404148 11.9844 0.404149 11.5103 0.878273L7.64648 4.74211L3.78265 0.878273C3.30853 0.404149 2.53952 0.404148 2.06539 0.878273L1.20676 1.7369C0.732637 2.21103 0.732638 2.98004 1.20676 3.45416L5.0706 7.318L1.20676 11.1818C0.732637 11.656 0.732638 12.425 1.20676 12.8991L2.06539 13.7577C2.53952 14.2318 3.30853 14.2318 3.78265 13.7577L7.64648 9.89388L11.5103 13.7577C11.9844 14.2318 12.7535 14.2318 13.2276 13.7577L14.0862 12.8991C14.5603 12.425 14.5603 11.656 14.0862 11.1818Z" fill="white"/>
</svg>
