<svg width="40" height="15" viewBox="0 0 40 15" fill="none" xmlns="http://www.w3.org/2000/svg">
<g clip-path="url(#clip0)">
<path d="M38.7532 4.81941C38.8395 5.45455 38.4206 6.14014 37.5523 6.83871C36.6867 7.53505 35.3885 8.2326 33.7518 8.89131C30.4792 10.2084 25.8651 11.3657 20.6856 12.0495C15.5061 12.7334 10.7457 12.8139 7.23675 12.3921C5.48184 12.1812 4.04315 11.8451 3.02221 11.3978C1.99799 10.9491 1.41087 10.3963 1.32457 9.76123C1.23827 9.12608 1.6571 8.4405 2.52543 7.74193C3.39096 7.04558 4.68919 6.34804 6.32593 5.68933C9.59858 4.3722 14.2127 3.21498 19.3921 2.53112C24.5716 1.84726 29.3321 1.76675 32.841 2.18848C34.5959 2.3994 36.0346 2.73558 37.0555 3.18285C38.0797 3.63155 38.6669 4.18432 38.7532 4.81941Z" stroke="#2D3E4E" stroke-width="0.5"/>
<path opacity="0.5" d="M30.8652 2.20443C30.8652 2.90845 30.2862 3.47918 29.572 3.47918C28.8578 3.47918 28.2788 2.90845 28.2788 2.20443C28.2788 1.50041 28.8578 0.929688 29.572 0.929688C30.2862 0.929688 30.8652 1.50041 30.8652 2.20443Z" fill="#2D3E4E" stroke="#2D3E4E" stroke-width="1.5"/>
<path opacity="0.5" d="M19.4314 3.93507C20.1031 3.93507 20.6475 3.39838 20.6475 2.73633C20.6475 2.07429 20.1031 1.5376 19.4314 1.5376C18.7598 1.5376 18.2153 2.07429 18.2153 2.73633C18.2153 3.39838 18.7598 3.93507 19.4314 3.93507Z" fill="#2D3E4E" stroke="#2D3E4E" stroke-width="1.5"/>
<path opacity="0.5" d="M9.02174 5.91131C9.73596 5.91131 10.315 5.34059 10.315 4.63656C10.315 3.93254 9.73596 3.36182 9.02174 3.36182C8.30751 3.36182 7.72852 3.93254 7.72852 4.63656C7.72852 5.34059 8.30751 5.91131 9.02174 5.91131Z" fill="#2D3E4E" stroke="#2D3E4E" stroke-width="1.5"/>
<path opacity="0.75" d="M3.06683 9.57709C3.06683 10.3231 2.45332 10.9278 1.6965 10.9278C0.939689 10.9278 0.326172 10.3231 0.326172 9.57709C0.326172 8.83108 0.939689 8.22632 1.6965 8.22632C2.45332 8.22632 3.06683 8.83108 3.06683 9.57709Z" fill="#2D3E4E" stroke="#2D3E4E" stroke-width="1.5"/>
<path opacity="0.9" d="M11.0265 13.5122C11.8259 13.5122 12.474 12.8734 12.474 12.0855C12.474 11.2975 11.8259 10.6587 11.0265 10.6587C10.2271 10.6587 9.5791 11.2975 9.5791 12.0855C9.5791 12.8734 10.2271 13.5122 11.0265 13.5122Z" fill="#2D3E4E" stroke="#2D3E4E" stroke-width="1.5"/>
<path d="M23.5013 11.7437C23.5013 12.6787 22.7323 13.4368 21.7836 13.4368C20.835 13.4368 20.0659 12.6787 20.0659 11.7437C20.0659 10.8086 20.835 10.0505 21.7836 10.0505C22.7323 10.0505 23.5013 10.8086 23.5013 11.7437Z" fill="#2D3E4E" stroke="#2D3E4E" stroke-width="1.5"/>
<path opacity="0.9" d="M31.384 11.0798C32.1834 11.0798 32.8314 10.4411 32.8314 9.65308C32.8314 8.8651 32.1834 8.22632 31.384 8.22632C30.5846 8.22632 29.9365 8.8651 29.9365 9.65308C29.9365 10.4411 30.5846 11.0798 31.384 11.0798Z" fill="#2D3E4E" stroke="#2D3E4E" stroke-width="1.5"/>
<path opacity="0.75" d="M39.4623 4.71257C39.4623 5.45859 38.8488 6.06334 38.092 6.06334C37.3352 6.06334 36.7217 5.45859 36.7217 4.71257C36.7217 3.96657 37.3352 3.36182 38.092 3.36182C38.8488 3.36182 39.4623 3.96657 39.4623 4.71257Z" fill="#2D3E4E" stroke="#2D3E4E" stroke-width="1.5"/>
</g>
<defs>
<clipPath id="clip0">
<rect width="40" height="15" fill="white"/>
</clipPath>
</defs>
</svg>
