<svg xmlns="http://www.w3.org/2000/svg" viewBox="0 0 33 33" width="33" height="33">
	<style>
		tspan { white-space:pre }
		.shp0 { fill: #2d3e4e } 
	</style>
	<g id="Layer_2">
		<g id="Layer_1-2">
			<g id="Layer">
				<path id="Layer" fill-rule="evenodd" class="shp0" d="M21.69 8.39C21.96 8.39 22.24 8.45 22.49 8.55C22.74 8.66 22.97 8.81 23.17 9.01C23.36 9.2 23.52 9.43 23.62 9.69C23.73 9.94 23.78 10.22 23.78 10.49L23.78 21.69C23.78 21.96 23.72 22.24 23.62 22.49C23.51 22.74 23.36 22.97 23.16 23.16C22.97 23.36 22.74 23.51 22.49 23.62C22.24 23.72 21.96 23.78 21.69 23.78L10.49 23.78C10.22 23.78 9.94 23.73 9.69 23.62C9.43 23.52 9.2 23.36 9.01 23.17C8.81 22.97 8.66 22.74 8.55 22.49C8.45 22.24 8.39 21.96 8.39 21.69L8.39 10.49C8.39 10.21 8.44 9.94 8.55 9.69C8.66 9.43 8.81 9.2 9.01 9.01C9.2 8.81 9.43 8.66 9.69 8.55C9.94 8.44 10.21 8.39 10.49 8.39L21.69 8.39ZM9.79 21.69C9.79 21.78 9.81 21.87 9.84 21.96C9.88 22.04 9.93 22.12 10 22.18C10.06 22.25 10.14 22.3 10.22 22.33C10.31 22.36 10.4 22.38 10.49 22.38L21.69 22.38C21.78 22.38 21.87 22.36 21.95 22.33C22.04 22.29 22.11 22.24 22.18 22.18C22.24 22.11 22.29 22.04 22.33 21.95C22.36 21.87 22.38 21.78 22.38 21.69L22.38 10.49C22.38 10.4 22.36 10.31 22.33 10.22C22.3 10.14 22.25 10.06 22.18 10C22.12 9.93 22.04 9.88 21.96 9.84C21.87 9.81 21.78 9.79 21.69 9.79L10.49 9.79C10.4 9.79 10.31 9.81 10.22 9.84C10.14 9.88 10.06 9.93 10 10C9.93 10.06 9.88 10.14 9.84 10.22C9.81 10.31 9.79 10.4 9.79 10.49L9.79 21.69Z" />
			</g>
		</g>
	</g>
</svg>