<svg xmlns="http://www.w3.org/2000/svg" viewBox="0 0 33 33" width="33" height="33">
	<style>
		tspan { white-space:pre }
		.shp0 { fill: #2d3e4e } 
	</style>
	<g id="Layer_2">
		<g id="Layer_1-2">
			<g id="Layer">
				<path id="Layer" class="shp0" d="M24 7.18L29.79 1.42L27.36 1.42C27.27 1.42 27.18 1.4 27.09 1.37C27 1.33 26.93 1.28 26.86 1.21C26.8 1.15 26.74 1.07 26.71 0.98C26.68 0.89 26.66 0.8 26.66 0.71C26.66 0.62 26.68 0.53 26.71 0.44C26.74 0.35 26.8 0.27 26.86 0.21C26.93 0.14 27 0.09 27.09 0.05C27.18 0.02 27.27 0 27.36 0L31.48 0C31.57 0 31.66 0.02 31.75 0.06C31.83 0.09 31.91 0.15 31.98 0.21C32.04 0.28 32.09 0.36 32.13 0.44C32.16 0.53 32.18 0.62 32.18 0.71L32.18 4.89C32.18 5.08 32.11 5.25 31.97 5.38C31.84 5.52 31.67 5.59 31.48 5.59C31.29 5.59 31.12 5.52 30.99 5.38C30.85 5.25 30.78 5.08 30.78 4.89L30.78 2.41L25 8.19C24.94 8.26 24.86 8.31 24.77 8.35C24.69 8.39 24.59 8.41 24.5 8.41C24.41 8.41 24.31 8.39 24.23 8.35C24.14 8.31 24.06 8.26 24 8.19C23.93 8.12 23.88 8.04 23.85 7.96C23.81 7.87 23.79 7.78 23.79 7.68C23.79 7.59 23.81 7.5 23.85 7.41C23.88 7.33 23.93 7.25 24 7.18Z" />
				<path id="Layer" class="shp0" d="M0.7 0L4.82 0C5.01 0 5.19 0.07 5.32 0.21C5.46 0.34 5.53 0.52 5.53 0.71C5.53 0.9 5.46 1.08 5.32 1.21C5.19 1.35 5.01 1.42 4.82 1.42L2.39 1.42L8.18 7.18C8.24 7.25 8.29 7.32 8.33 7.41C8.36 7.5 8.38 7.59 8.38 7.68C8.38 7.77 8.36 7.86 8.33 7.95C8.29 8.04 8.24 8.11 8.18 8.18C8.12 8.25 8.04 8.3 7.95 8.34C7.87 8.38 7.77 8.39 7.68 8.39C7.59 8.39 7.49 8.38 7.41 8.34C7.32 8.3 7.24 8.25 7.18 8.18L1.39 2.4L1.39 4.89C1.41 5.09 1.35 5.29 1.22 5.44C1.09 5.59 0.9 5.67 0.7 5.67C0.49 5.67 0.3 5.59 0.17 5.44C0.04 5.29 -0.02 5.09 0 4.89L0 0.71C0 0.62 0.02 0.53 0.05 0.44C0.08 0.35 0.14 0.27 0.2 0.21C0.27 0.14 0.34 0.09 0.43 0.05C0.52 0.02 0.61 0 0.7 0L0.7 0Z" />
				<path id="Layer" class="shp0" d="M24 24C24.06 23.93 24.14 23.88 24.23 23.84C24.31 23.8 24.41 23.79 24.5 23.79C24.59 23.79 24.69 23.8 24.77 23.84C24.86 23.88 24.94 23.93 25 24L30.82 29.79L30.82 27.28C30.82 27.09 30.89 26.92 31.03 26.79C31.16 26.65 31.33 26.58 31.52 26.58C31.71 26.58 31.88 26.65 32.01 26.79C32.15 26.92 32.22 27.09 32.22 27.28L32.22 31.47C32.22 31.56 32.2 31.65 32.17 31.74C32.13 31.82 32.08 31.9 32.02 31.97C31.95 32.03 31.87 32.09 31.79 32.12C31.7 32.16 31.61 32.18 31.52 32.18L27.36 32.18C27.17 32.18 26.99 32.11 26.86 31.97C26.72 31.84 26.65 31.66 26.65 31.47C26.65 31.28 26.72 31.1 26.86 30.97C26.99 30.83 27.17 30.76 27.36 30.76L29.78 30.76L24 25C23.94 24.93 23.89 24.86 23.85 24.77C23.82 24.68 23.8 24.59 23.8 24.5C23.8 24.41 23.82 24.32 23.85 24.23C23.89 24.14 23.94 24.07 24 24Z" />
				<path id="Layer" class="shp0" d="M0.7 26.57C0.79 26.57 0.88 26.59 0.97 26.63C1.05 26.66 1.13 26.72 1.19 26.78C1.26 26.85 1.31 26.93 1.34 27.01C1.37 27.1 1.39 27.19 1.39 27.28L1.39 29.77L7.21 24C7.28 23.93 7.35 23.88 7.44 23.84C7.52 23.81 7.62 23.79 7.71 23.79C7.8 23.79 7.9 23.81 7.98 23.84C8.07 23.88 8.14 23.93 8.21 24C8.27 24.07 8.32 24.14 8.36 24.23C8.39 24.32 8.41 24.41 8.41 24.5C8.41 24.59 8.39 24.68 8.36 24.77C8.32 24.86 8.27 24.93 8.21 25L2.39 30.76L4.82 30.76C5.01 30.76 5.19 30.83 5.32 30.97C5.46 31.1 5.53 31.28 5.53 31.47C5.53 31.66 5.46 31.84 5.32 31.97C5.19 32.11 5.01 32.18 4.82 32.18L0.7 32.18C0.61 32.18 0.52 32.16 0.43 32.13C0.34 32.09 0.27 32.04 0.2 31.97C0.14 31.91 0.08 31.83 0.05 31.74C0.02 31.65 0 31.56 0 31.47L0 27.28C0 27.19 0.02 27.1 0.05 27.01C0.08 26.92 0.14 26.84 0.2 26.78C0.27 26.71 0.34 26.66 0.43 26.62C0.52 26.59 0.61 26.57 0.7 26.57L0.7 26.57Z" />
			</g>
		</g>
	</g>
</svg>