<svg xmlns="http://www.w3.org/2000/svg" xmlns:xlink="http://www.w3.org/1999/xlink" viewBox="0 0 32.18 32.18"><defs><style>.cls-1{fill:none;}.cls-2{clip-path:url(#clip-path);}.cls-3{fill:#2d3e4e;}</style><clipPath id="clip-path" transform="translate(0)"><rect class="cls-1" width="32.18" height="32.18"/></clipPath></defs><g id="Layer_2" data-name="Layer 2"><g id="Layer_1-2" data-name="Layer 1"><g class="cls-2"><path class="cls-3" d="M10.49,8.39h11.2a2.1,2.1,0,0,1,2.09,2.1v11.2a2.1,2.1,0,0,1-2.09,2.09H10.49a2.1,2.1,0,0,1-2.1-2.09V10.49A2.1,2.1,0,0,1,10.49,8.39Zm-.7,13.3a.69.69,0,0,0,.7.69h11.2a.69.69,0,0,0,.69-.69V10.49a.69.69,0,0,0-.69-.7H10.49a.7.7,0,0,0-.7.7Z" transform="translate(0)"/><path class="cls-3" d="M24,7.18l5.79-5.76H27.36a.7.7,0,0,1-.7-.71.7.7,0,0,1,.7-.71h4.12a.71.71,0,0,1,.7.71V4.89a.7.7,0,1,1-1.4,0V2.41L25,8.19a.68.68,0,0,1-1,0A.72.72,0,0,1,24,7.18Z" transform="translate(0)"/><path class="cls-3" d="M.7,0H4.82a.71.71,0,0,1,0,1.42H2.39L8.18,7.18a.72.72,0,0,1,0,1,.69.69,0,0,1-1,0L1.39,2.4V4.89A.7.7,0,1,1,0,4.89V.71A.7.7,0,0,1,.7,0Z" transform="translate(0)"/><path class="cls-3" d="M24,24a.69.69,0,0,1,1,0l5.82,5.79V27.28a.7.7,0,1,1,1.4,0v4.19a.71.71,0,0,1-.7.71H27.36a.71.71,0,0,1,0-1.42h2.42L24,25A.72.72,0,0,1,24,24Z" transform="translate(0)"/><path class="cls-3" d="M.7,26.57a.7.7,0,0,1,.69.71v2.49L7.21,24a.7.7,0,0,1,1,0,.72.72,0,0,1,0,1L2.39,30.76H4.82a.71.71,0,0,1,0,1.42H.7a.7.7,0,0,1-.7-.71V27.28A.7.7,0,0,1,.7,26.57Z" transform="translate(0)"/></g></g></g></svg>