<svg width="212" height="8" viewBox="0 0 212 8" fill="none" xmlns="http://www.w3.org/2000/svg">
<path d="M145.267 0.312868L149.909 0.211908C123.59 0.379312 95.7037 1.03474 70.9562 0.782381L64.754 0.529384C52.3636 0.445123 36.887 0.686564 24.5083 0.958208C20.8016 1.03497 17.1227 1.40283 13.6224 2.04671C12.0797 2.22175 10.4961 2.56621 12.0343 2.72311C15.1333 2.78745 22.8734 2.72159 22.8535 3.05637C22.8562 3.13926 21.3081 3.15096 19.7601 3.16511C19.7452 3.49732 15.0612 4.20447 13.513 4.21374C11.9704 4.39121 2.62594 4.95337 1.0627 5.13139C-3.60451 5.40868 10.2822 6.57321 16.4775 6.77515C19.5791 6.91749 16.4551 7.19295 16.4427 7.44214C19.5361 7.33583 21.092 7.56301 24.1857 7.46402C24.6862 7.50684 25.1973 7.52358 25.71 7.51394C26.6549 7.52551 27.961 7.53242 29.4166 7.53292C32.3227 7.53892 35.8166 7.52448 38.1437 7.50433C38.1437 7.50433 39.689 7.4073 44.3326 7.3551C45.8806 7.33852 45.8778 7.25565 45.8751 7.17276L45.8806 7.33853C47.423 7.15618 50.5243 7.28877 52.1004 7.18848L52.1059 7.35424C55.1961 7.15286 58.2972 7.27815 61.4211 7.15883L61.4266 7.3246C62.9744 7.30557 64.5222 7.28654 64.525 7.36942L64.5305 7.53762C66.0811 7.60148 69.1711 7.3928 69.1766 7.55856L69.1711 7.3928C75.3621 7.30695 80.0392 7.32949 84.7003 7.33783C97.0932 7.49766 112.661 7.05617 126.64 6.61287C128.187 6.5719 129.729 6.38711 128.176 6.25012L132.818 6.15892C135.913 6.09406 134.358 5.87419 137.452 5.81177C162.3 4.88303 187.152 4.67884 211.978 3.71895C205.787 3.80724 201.099 3.78008 194.898 4.02479C194.895 3.9419 194.89 3.78102 193.343 3.82198C184.022 3.99315 173.161 4.42711 168.498 4.20412C166.948 4.15733 165.392 3.94478 160.751 4.05549L165.392 3.9326L165.384 3.68883L145.204 3.8962L145.196 3.65243L142.101 3.71729C138.987 3.20198 156.057 2.92079 163.812 2.65448L163.801 2.32052L160.706 2.40244L160.701 2.23424C169.984 2.01771 177.757 1.82656 187.065 1.58497L180.877 1.74883C180.874 1.66595 180.871 1.58306 179.324 1.62159C185.513 1.46992 193.282 1.34229 199.475 1.00996C201.019 0.881237 199.464 0.678427 194.82 0.718437L182.418 1.04683L182.412 0.881069C185.506 0.799141 190.15 0.759132 193.242 0.594322C194.786 0.468038 190.14 0.43248 191.684 0.301321C193.234 0.274289 194.782 0.204774 196.322 0.0931157C191.681 0.216007 185.496 0.470057 180.82 0.503573C179.27 0.459217 177.72 0.41486 177.715 0.249096C169.982 0.531922 163.784 0.417878 159.129 0.114171C157.663 -0.0470787 149.914 0.211779 145.267 0.312868Z" fill="#FFD04E"/>
</svg>
