<svg width="78" height="78" viewBox="0 0 78 78" fill="none" xmlns="http://www.w3.org/2000/svg">
<g opacity="0.4">
<path fill-rule="evenodd" clip-rule="evenodd" d="M35.6552 14.3853C37.5568 12.674 40.4434 12.674 42.3449 14.3853L66.2627 35.9114C68.1046 37.5691 66.932 40.625 64.4539 40.625C62.9606 40.625 61.7501 41.8356 61.7501 43.3289V61.625C61.7501 64.3864 59.5115 66.625 56.7501 66.625H47.2501C44.4886 66.625 42.2501 64.3864 42.2501 61.625V50.375C42.2501 48.5801 40.795 47.125 39.0001 47.125C37.2051 47.125 35.7501 48.5801 35.7501 50.375V61.625C35.7501 64.3864 33.5115 66.625 30.7501 66.625H21.2501C18.4886 66.625 16.2501 64.3864 16.2501 61.625V43.3289C16.2501 41.8356 15.0395 40.625 13.5462 40.625C11.0682 40.625 9.89551 37.5691 11.7374 35.9114L35.6552 14.3853ZM55.2501 34.7425L39.0001 20.1175L22.7501 34.7425V60.125H29.2501V40.625H48.7501V60.125H55.2501V34.7425Z" fill="#BDBDBD"/>
</g>
</svg>
