<svg xmlns="http://www.w3.org/2000/svg" viewBox="0 0 75 72" width="75" height="72">
	<style>
		tspan { white-space:pre }
		.shp0 { fill: #fdfbf7 } 
		.shp1 { fill: #ffeebf } 
		.shp2 { fill: #ffffff } 
	</style>
	<path id="Layer" class="shp0" d="M4.94 26.66C0.18 45.25 11.58 64.23 30.38 69.04C49.19 73.85 68.29 62.68 73.05 44.09C77.81 25.49 66.41 6.52 47.61 1.71C28.8 -3.1 9.7 8.07 4.94 26.66Z" />
	<path id="Layer" class="shp1" d="M23.2 64.77L23.91 65.16C23.68 65.01 23.45 64.88 23.2 64.77Z" />
	<path id="Layer" class="shp1" d="M25.5 66.85C27.38 67.66 27.47 67.23 29.35 68.11L29.41 67.77L30.47 68.23C30.17 68.03 31.21 68.17 30.69 67.86C30.94 68.13 29.95 67.81 29.09 67.54C28.23 67.27 27.54 66.99 28.3 67.53C28 67.32 27.7 67.14 27.39 66.97C27.06 66.78 26.72 66.59 26.35 66.41C26.17 66.32 25.98 66.23 25.78 66.13C25.59 66.04 25.38 65.93 25.19 65.83C24.79 65.62 24.35 65.42 23.91 65.16C24.33 65.49 24.73 65.84 25.09 66.23C25.35 66.21 25.6 66.21 25.85 66.19C27.79 67.07 27.18 67.36 25.5 66.85Z" />
	<path id="Layer" class="shp1" d="M36.45 0.87C36.52 0.89 36.63 0.92 36.71 0.94C36.94 0.92 37.17 0.9 37.43 0.91C37.1 0.88 36.81 0.88 36.45 0.87Z" />
	<path id="Layer" class="shp1" d="M41.04 1.48C40.56 1.43 40.07 1.42 39.59 1.4C39.99 1.46 40.4 1.49 40.8 1.58C40.87 1.54 40.95 1.5 41.04 1.48Z" />
	<path id="Layer" class="shp1" d="M46.13 2.17L45.9 2.09C45.82 2.07 45.73 2.04 45.64 2.05C45.8 2.08 45.96 2.13 46.13 2.17Z" />
	<path id="Layer" class="shp1" d="M46.89 2.39L46.45 2.57C46.61 2.64 46.75 2.73 46.89 2.83C47.03 2.78 47.36 2.77 47.12 2.63C47.49 2.73 47.86 2.85 48.22 2.95L47.98 2.7C47.62 2.57 47.26 2.47 46.89 2.39Z" />
	<path id="Layer" class="shp1" d="M43.3 1.63L42.9 1.53C43 1.42 42.95 1.33 42.76 1.24C42.25 1.11 41.7 1.05 41.09 0.94C40.88 0.92 40.65 0.9 40.42 0.89C40.69 0.99 41.05 1.12 41.46 1.24C41.86 1.35 42.31 1.45 42.76 1.63L43.04 1.7L42.93 1.68L43.26 1.79C42.68 1.78 42.1 1.76 41.52 1.79C42.13 1.88 42.72 2.02 43.32 2.15L43.89 1.85C44.11 1.91 44.3 1.93 44.49 1.97C44 1.81 43.49 1.71 42.99 1.59L43.3 1.63Z" />
	<path id="Layer" class="shp1" d="M47.84 2.55L47.61 2.32C47.24 2.22 46.87 2.21 46.51 2.17C46.99 2.34 47.42 2.43 47.84 2.55Z" />
	<path id="Layer" class="shp1" d="M39.53 0.99L39.13 0.86C38.78 0.85 38.43 0.88 38.09 0.88C38.37 0.93 38.73 0.94 39.53 0.99Z" />
	<path id="Layer" class="shp1" d="M47.21 3.04C47.1 2.96 47 2.9 46.9 2.83C46.81 2.85 46.81 2.91 47.21 3.04Z" />
	<path id="Layer" class="shp1" d="M38.7 1.43C38.46 1.39 38.23 1.32 38.01 1.21C37.5 1.12 37.04 1.02 36.72 0.94C35.99 0.98 35.34 0.98 34.85 0.98L35.39 1.06C35.42 1.07 35.47 1.05 35.51 1.05L35.41 1.07L35.77 1.16C35.49 1.17 35.26 1.18 35.06 1.2C34.87 1.31 35.54 1.3 36.02 1.37C36.59 1.34 37.16 1.35 37.72 1.4C37.63 1.45 37.53 1.49 37.45 1.52L38.55 1.48C38.6 1.47 38.65 1.45 38.7 1.43Z" />
	<path id="Layer" class="shp1" d="M38.78 1.45L38.54 1.46C38.17 1.5 37.8 1.51 37.43 1.51C37.14 1.63 37 1.7 37.78 1.83L38.84 1.69L39.9 1.6C39.42 1.48 38.93 1.36 38.46 1.29C38.66 1.34 38.81 1.38 38.7 1.43L38.78 1.45Z" />
	<path id="Layer" class="shp1" d="M34.06 1.47L34.85 1.41C35.19 1.27 35.33 1.16 33.78 1.33L34.55 1.2C34.04 1.17 33.52 1.18 33.01 1.22C33.01 1.22 33.04 1.23 33.04 1.27C33.98 1.27 33.78 1.46 34.38 1.61C34.42 1.59 34.45 1.57 34.49 1.55C34.35 1.54 34.2 1.51 34.06 1.47Z" />
	<path id="Layer" class="shp1" d="M34.77 1.77C34.3 1.84 33.8 1.9 33.32 2C34.1 1.86 34.54 1.83 34.77 1.77Z" />
	<path id="Layer" class="shp1" d="M34.77 1.77L35.02 1.74L34.95 1.72L34.92 1.71C34.87 1.74 34.82 1.76 34.77 1.77Z" />
	<path id="Layer" class="shp1" d="M29.62 2.24C30.01 2.12 30.4 2.04 30.8 1.99C30.88 1.93 30.93 1.88 31 1.82C30.53 1.94 30.08 2.09 29.62 2.24Z" />
	<path id="Layer" class="shp1" d="M30.78 2.52C30.94 2.5 31.13 2.47 31.37 2.42L31.11 2.26C30.98 2.33 30.87 2.42 30.78 2.52Z" />
	<path id="Layer" class="shp1" d="M32.43 1.99C32.18 1.94 31.92 1.94 31.67 1.97L31.36 2.12C31.71 2.03 32.07 1.99 32.43 1.99Z" />
	<path id="Layer" class="shp1" d="M45.09 1.45C44.65 1.21 43.9 0.95 45.65 1.35L45.85 1.33C45.79 1.29 45.73 1.24 45.68 1.18C45.25 1.11 44.64 1.03 44.8 0.93C44.5 1 44.19 1.02 43.88 0.98C43.39 0.93 42.9 0.83 42.43 0.67C42.71 1.07 44 1.15 44.6 1.34L45.09 1.45Z" />
	<path id="Layer" class="shp1" d="M44.64 1.7L44.54 1.67C44.54 1.67 44.5 1.66 44.47 1.68L44.64 1.7Z" />
	<path id="Layer" class="shp1" d="M45.72 1.19C45.84 1.22 45.94 1.28 46.05 1.32C46.2 1.3 46 1.23 45.72 1.19Z" />
	<path id="Layer" class="shp1" d="M49.9 2.57L49.56 2.34C49.42 2.31 49.28 2.31 49.14 2.31C49.38 2.43 49.64 2.51 49.9 2.57Z" />
	<path id="Layer" class="shp1" d="M48.98 1.95C49.17 2.08 49.37 2.2 49.56 2.34C49.87 2.37 50.07 2.34 48.98 1.95Z" />
	<path id="Layer" class="shp1" d="M48.15 2.19L48.48 2.28L47.56 1.81C47.61 1.85 47.97 2.05 48.15 2.19Z" />
	<path id="Layer" class="shp1" d="M47.36 1.88L47.34 2.04C47.52 2.06 47.69 2.1 47.87 2.14C47.89 2.07 47.68 1.97 47.36 1.88Z" />
	<path id="Layer" class="shp1" d="M36.38 2.02C36.96 2.04 37 2.24 38.55 2.26C37.77 2.2 37.68 2.12 37.57 2.07C37.46 2.01 37.3 1.95 36.38 2.02Z" />
	<path id="Layer" class="shp1" d="M43.6 2.41L43.74 2.36C42.94 2.24 42.15 2.09 41.34 2.01C42.1 2.1 42.84 2.29 43.6 2.41Z" />
	<path id="Layer" class="shp1" d="M60.38 9.42C60.49 9.44 60.46 9.34 60.37 9.2C60.22 9.13 60.18 9.18 60.38 9.42Z" />
	<path id="Layer" class="shp1" d="M58.77 7.07C58.59 6.91 58.39 6.77 58.18 6.67L58.42 6.9C58.54 6.95 58.65 7.01 58.77 7.07Z" />
	<path id="Layer" class="shp1" d="M62.86 10.99C62.83 10.9 62.89 10.88 63.14 11.07L63.13 11.03C62.87 10.8 62.63 10.56 62.4 10.3C62.22 10.12 62.04 9.93 61.89 9.72L62.25 10.47L61.38 9.8C61.36 9.8 61.34 9.79 61.32 9.78C61.86 10.15 62.38 10.55 62.86 10.99Z" />
	<path id="Layer" class="shp1" d="M60.08 8.82C60.6 8.98 59.8 8.23 58.99 7.61C58.6 7.29 58.2 7 57.99 6.84C57.78 6.67 57.77 6.61 58.14 6.77L58.01 6.65C57.81 6.66 57.61 6.6 57.44 6.48C57.01 6.06 56.53 5.7 56.07 5.31C55.94 5.44 56.95 6.11 57.98 6.96C58.87 7.61 59.67 8.36 60.37 9.2C60.55 9.28 60.72 9.37 60.88 9.49C61.1 9.64 61.31 9.81 61.5 9.99C61.41 9.86 61.31 9.74 61.21 9.62C60.85 9.33 60.46 9.08 60.08 8.82Z" />
	<path id="Layer" class="shp1" d="M61.72 10.19C61.96 10.43 62.12 10.63 62.06 10.73C62.37 11.04 62.71 11.32 63.07 11.56C63.11 11.33 62.2 10.45 61.72 10.19Z" />
	<path id="Layer" class="shp1" d="M61.89 9.69L61.82 9.55C61.82 9.55 61.86 9.62 61.89 9.69Z" />
	<path id="Layer" class="shp1" d="M61.44 8.92C61.63 9 61.7 9.01 61.55 8.95C61.41 8.88 61.17 8.66 60.97 8.52C61.12 8.66 61.27 8.8 61.44 8.92Z" />
	<path id="Layer" class="shp1" d="M60.21 8.1C60.08 8.02 59.95 7.94 59.81 7.87L59.9 8.02C60.26 8.31 60.65 8.56 61.07 8.76L60.91 8.47C60.61 8.26 60.33 8.06 60.09 7.87C59.86 7.71 59.66 7.53 59.48 7.32L59.73 7.74C59.91 7.83 60.07 7.96 60.21 8.1Z" />
	<path id="Layer" class="shp1" d="M50.01 4.01C49.83 3.97 49.66 3.9 49.5 3.81C49.64 3.84 49.82 3.93 50.01 4.01C50.56 4.15 51.08 4.39 51.62 4.58C51.26 4.34 50.91 4.08 50.37 3.75C50.59 3.84 50.81 3.93 51.04 4C50.87 3.88 50.78 3.79 50.82 3.74L51.23 3.92C51.05 3.82 50.88 3.74 50.73 3.67L50.39 3.55C50.22 3.49 50.04 3.44 49.86 3.41C49.85 3.47 49.67 3.46 49.58 3.49C49.67 3.56 49.76 3.63 49.85 3.71C49.5 3.56 49.5 3.51 49.58 3.49L49.42 3.35C48.86 3.34 48.31 3.23 47.79 3.03C48.45 3.39 48.87 3.61 49.32 3.87C49.77 4.13 50.24 4.39 50.97 4.86C51.2 4.72 51.87 4.92 52.55 5.19C52.24 4.97 51.99 4.79 51.74 4.63C51.67 4.71 51.41 4.63 51.1 4.47C50.78 4.3 50.36 4.16 50.01 4.01Z" />
	<path id="Layer" class="shp1" d="M50.01 4.01C50.36 4.16 50.76 4.36 51.08 4.51C51.4 4.66 51.65 4.74 51.72 4.68L51.63 4.61C51.31 4.5 50.56 4.19 50.01 4.01Z" />
	<path id="Layer" class="shp1" d="M51.63 4.59C51.1 4.4 50.57 4.18 50.03 4.03C50.56 4.19 51.31 4.5 51.63 4.59Z" />
	<path id="Layer" class="shp1" d="M49.5 3.81C49.66 3.9 49.83 3.97 50.01 4.01C49.82 3.93 49.64 3.85 49.5 3.81Z" />
	<path id="Layer" class="shp1" d="M61.69 10.5C63.26 12.17 60.69 9.96 62.52 11.74C62.94 11.88 62.53 11.28 61.69 10.5Z" />
	<path id="Layer" class="shp1" d="M73.12 35.28C73.14 35.38 73.14 35.47 73.15 35.57C73.29 35.13 73.38 34.67 73.52 34.23L73.49 33.95L73.12 35.28Z" />
	<path id="Layer" class="shp1" d="M67.85 16.9C67.79 16.75 67.75 16.6 67.72 16.45C67.49 15.82 68.62 16.72 67.07 15.02C67.49 15.94 66.83 15.39 67.85 16.9Z" />
	<path id="Layer" class="shp1" d="M69.4 18.89C68.89 18.09 68.92 18.62 69.19 19.35C69.28 19.48 69.36 19.63 69.43 19.78C69.33 19.37 69.73 19.66 69.4 18.89Z" />
	<path id="Layer" class="shp1" d="M73.94 33.3L73.88 32.69L73.88 32.92L73.94 33.3Z" />
	<path id="Layer" class="shp1" d="M73.24 38.53C73.04 38.98 72.92 39.46 72.88 39.95C73 39.47 73.14 39.08 73.26 38.67L73.24 38.53Z" />
	<path id="Layer" class="shp1" d="M72.88 39.98L72.81 40.47L72.71 41.08C72.7 41.22 72.71 41.35 72.73 41.48C72.8 41.12 72.89 40.72 72.94 40.43C72.99 40.13 72.98 39.94 72.88 39.98Z" />
	<path id="Layer" class="shp1" d="M73.34 40.26L73.33 39.98L73.31 40.07C73.33 40.13 73.34 40.19 73.34 40.26Z" />
	<path id="Layer" class="shp1" d="M73.38 37.49L73.23 38.4L73.24 38.53C73.31 38.19 73.36 37.84 73.38 37.49Z" />
	<path id="Layer" class="shp1" d="M71.8 27.55C72.09 28.46 72.19 28.62 72.21 28.46L71.95 27.37C71.95 27.58 71.92 27.69 71.8 27.55Z" />
	<path id="Layer" class="shp1" d="M72.2 28.01C72.17 27.7 72.14 27.31 72.13 27.1C72.13 27.4 72.15 27.71 72.2 28.01Z" />
	<path id="Layer" class="shp1" d="M71.33 23.83C71.23 23.73 71.23 23.87 71.26 24.09C71.39 24.33 71.54 24.58 71.68 24.9C71.87 25.29 72.01 25.71 72.1 26.14L71.99 25.55C71.94 25.36 71.88 25.16 71.82 24.96C71.71 24.56 71.54 24.18 71.33 23.83Z" />
	<path id="Layer" class="shp1" d="M72.34 29.6C72.35 29.47 72.35 29.34 72.33 29.21C72.33 29.34 72.33 29.47 72.34 29.6Z" />
	<path id="Layer" class="shp1" d="M73.35 30.63C73.38 31.08 73.42 31.54 73.45 32C73.48 32.45 73.45 32.92 73.45 33.34C73.49 33.66 73.48 33.99 73.43 34.3L73.65 35.25L73.67 34.47C73.8 34.38 73.91 34.77 73.97 35.29C74 35.84 73.95 36.39 73.81 36.91C73.84 37.37 73.86 37.46 73.9 37.35C73.96 37.12 73.99 36.88 74 36.64C74.05 36.06 74.09 35.51 74.13 36.6C74.17 36.08 74.19 35.72 74.2 35.43C74.21 35.24 74.2 35.05 74.18 34.86C74.15 34.63 74.1 34.66 74.04 34.66C73.97 34.66 73.91 34.63 73.84 34.28C73.81 34.1 73.79 33.85 73.74 33.49C73.7 33.12 73.65 32.64 73.6 32.01C73.6 31.29 73.72 31.52 73.81 31.98C73.72 31.26 73.51 30.48 73.35 30.63Z" />
	<path id="Layer" class="shp1" d="M72.64 27.95L72.47 27.54C72.54 27.76 72.59 28.02 72.65 28.23L72.64 27.95Z" />
	<path id="Layer" class="shp1" d="M72.57 33.68L72.53 33.4C72.48 33.79 72.4 34.17 72.33 34.55C72.47 34.86 72.57 34.73 72.64 34.37C72.68 34.14 72.71 33.92 72.72 33.69L72.75 32.8C72.76 33.1 72.7 33.4 72.57 33.68Z" />
	<path id="Layer" class="shp1" d="M73.42 36.7C73.42 36.97 73.41 37.23 73.38 37.5C73.49 36.9 73.52 36.28 73.59 35.64C73.48 35.98 73.42 36.34 73.42 36.7Z" />
	<path id="Layer" class="shp1" d="M72.62 30.28L72.65 29.48C72.62 29.24 72.59 29.02 72.55 28.78C72.43 28.82 72.37 28.96 72.34 29.15C72.38 29.53 72.41 29.9 72.42 30.21C72.52 30.84 72.64 31.61 72.71 32.25C72.73 32.17 72.73 32.08 72.73 31.98L72.74 32.05C72.72 31.6 72.71 31.15 72.73 30.7C72.71 30.56 72.67 30.42 72.62 30.28Z" />
	<path id="Layer" class="shp1" d="M71.56 22.95L71.68 23.16C71.57 22.79 71.43 22.43 71.26 22.08L71.16 21.97C71.32 22.29 71.46 22.61 71.56 22.95Z" />
	<path id="Layer" class="shp1" d="M72.2 24.86C72.36 25.07 72.55 25.29 72.68 25.51C72.42 24.63 72.32 24.49 72.27 24.51L72.32 24.67C72.15 24.55 72.16 24.66 72.2 24.86Z" />
	<path id="Layer" class="shp1" d="M73.42 34.32L73.4 34.21C73.43 33.93 73.44 33.64 73.44 33.36L73.38 32.62C73.3 33.18 73.21 33.03 73.12 32.6C73.04 33.08 73 33.56 72.91 34.03C73 34.67 73.06 35.31 73.09 35.95C73.13 36.64 73.18 37.18 73.3 37.02C73.28 36.92 73.26 36.82 73.25 36.71C73.25 36.15 73.25 35.75 73.27 35.46C73.27 35.25 73.28 35.05 73.3 34.84C73.33 34.6 73.38 34.56 73.42 34.32Z" />
	<path id="Layer" class="shp1" d="M72.63 26.66L72.75 26.84C72.99 27.14 73.12 27.51 73.14 27.89C73.18 27.9 73.21 27.92 73.24 27.95C73.08 27.2 72.83 26.48 72.49 25.8C72.58 26.08 72.63 26.37 72.63 26.66Z" />
	<path id="Layer" class="shp1" d="M72.17 26.91C72.17 26.91 72.21 26.92 72.25 26.92C72.29 26.93 72.29 27.03 72.32 27.08L72.23 26.75C72.14 26.55 72.04 26.36 71.92 26.17C71.98 26.42 72.06 26.67 72.17 26.91Z" />
	<path id="Layer" class="shp1" d="M73.02 28.39C73.19 29.12 73.27 29.62 73.36 29.97C73.31 29.31 73.21 28.66 73.07 28.02C73 27.93 72.98 27.97 73.02 28.39Z" />
	<path id="Layer" class="shp1" d="M73.66 30.76C73.62 30.61 73.55 30.47 73.47 30.34C73.54 30.64 73.6 30.73 73.66 30.76Z" />
	<path id="Layer" class="shp1" d="M71.06 21.73C71.02 21.66 70.98 21.59 70.93 21.52L71.02 21.69L71.06 21.73Z" />
	<path id="Layer" class="shp1" d="M71.32 23.69C71.26 23.49 71.21 23.32 71.15 23.15C70.99 23.04 70.86 22.95 70.86 23.08C70.91 23.03 71.03 23.18 71.32 23.69Z" />
	<path id="Layer" class="shp1" d="M70.86 23.09C70.8 22.95 70.73 22.75 70.66 22.54C70.58 22.32 70.46 22.09 70.34 21.86C70.47 22.44 70.68 23.01 70.94 23.55C70.9 23.4 70.87 23.24 70.86 23.09Z" />
	<path id="Layer" class="shp1" d="M68.01 17.82C68.19 18.02 68.34 18.23 68.46 18.47C68.29 17.97 68.05 17.51 67.75 17.09C67.64 16.99 67.53 16.88 67.42 16.78L67.59 17.14C67.73 17.34 67.87 17.57 68.01 17.82Z" />
	<path id="Layer" class="shp1" d="M66.98 16.41C67.12 16.54 67.26 16.69 67.37 16.84L67.28 16.68L66.98 16.41Z" />
	<path id="Layer" class="shp1" d="M68.76 19.86L68.88 19.89L68.84 19.8C68.82 19.85 68.81 19.88 68.76 19.86Z" />
	<path id="Layer" class="shp1" d="M68.83 19.65C68.87 19.74 68.92 19.83 68.96 19.92L69.09 19.96L68.76 19.23C68.72 19.19 68.68 19.15 68.64 19.11C68.72 19.29 68.78 19.47 68.83 19.65Z" />
	<path id="Layer" class="shp1" d="M70.08 22.01L70.2 22.43C70.18 22.29 70.14 22.15 70.08 22.01Z" />
	<path id="Layer" class="shp1" d="M70.08 22.01C69.88 21.28 69.55 20.58 69.09 19.97C69.12 20.19 69.18 20.41 69.26 20.62C69.37 20.87 69.45 21.08 69.5 21.24C70.03 22.58 70.69 24.31 70.23 23.99C70.64 24.55 70.61 24.26 70.44 23.65C70.34 23.34 70.23 22.95 70.08 22.56C69.93 22.18 69.78 21.78 69.65 21.44C69.84 21.6 69.98 21.79 70.08 22.01Z" />
	<path id="Layer" class="shp1" d="M72.63 26.7C72.67 26.75 72.72 26.79 72.75 26.84L72.63 26.66L72.63 26.7Z" />
	<path id="Layer" class="shp1" d="M73.28 41.11C73.15 41.5 73.02 41.83 72.91 42.13C72.8 42.43 72.66 42.69 72.55 42.94L71.84 44.52C72.15 44.42 71.55 45.76 71.32 46.57C71.56 46.27 71.77 45.95 71.94 45.61C72.11 45.24 72.25 44.86 72.37 44.47C72.52 44.06 72.63 43.58 72.78 43.02L73.01 42.13C73.1 41.83 73.19 41.48 73.28 41.11Z" />
	<path id="Layer" class="shp1" d="M71.07 48.73C71.1 48.73 71.17 48.65 71.31 48.48C71.14 48.89 70.94 49.28 70.73 49.68C71.08 49.19 71.39 48.68 71.71 48.14C71.1 49.17 71.27 48.62 71.52 47.9L71.71 47.36C71.76 47.18 71.8 47.01 71.83 46.88C71.9 46.61 71.9 46.48 71.76 46.67C71.77 47.15 70.96 48.65 71.05 48.73C71.16 48.52 71.27 48.3 71.41 48.06L71.07 48.73Z" />
	<path id="Layer" class="shp1" d="M72.8 35.89C72.61 36.82 72.61 36.78 72.68 36.76C72.75 36.73 72.85 36.8 72.78 37.83C72.88 37.53 72.91 37.22 72.88 36.9C72.85 36.59 72.79 36.24 72.8 35.89Z" />
	<path id="Layer" class="shp1" d="M68.27 53.9C68.52 53.6 68.74 53.3 68.96 52.98C68.7 53.31 68.48 53.62 68.27 53.9Z" />
	<path id="Layer" class="shp1" d="M68.27 53.9C67.96 54.27 67.67 54.68 67.34 55.05C67.42 54.99 67.45 54.98 67.48 55C67.6 54.88 67.72 54.75 67.84 54.61C67.97 54.36 68.11 54.13 68.27 53.9Z" />
	<path id="Layer" class="shp1" d="M65.91 55.22C65.98 55.26 66.2 55.12 66.48 54.86C66.65 54.72 66.81 54.56 66.95 54.4C67.11 54.22 67.28 54.04 67.44 53.8C67.12 54.17 67.19 53.77 67.11 53.66C67.04 53.56 66.87 53.76 65.91 55.22Z" />
	<path id="Layer" class="shp1" d="M13.54 56.66C13.07 56.28 13.44 56.92 13.82 57.59L13.92 57.75L13.88 57.71C14.16 58.17 14.42 58.61 14.34 58.72C14.41 58.8 14.49 58.89 14.58 58.99C14.56 58.71 14.47 58.44 14.32 58.2C14.03 57.71 13.76 57.19 13.54 56.66Z" />
	<path id="Layer" class="shp1" d="M21.6 63.85L22.32 64.32C22.11 64.13 21.86 63.98 21.6 63.85Z" />
	<path id="Layer" class="shp1" d="M8.46 48.51L8.37 48.09C8.39 48.23 8.42 48.37 8.46 48.51Z" />
	<path id="Layer" class="shp1" d="M6.7 43.7L6.71 43.77L6.92 43.76L6.7 43.7Z" />
	<path id="Layer" class="shp1" d="M35.26 71.76C35.25 71.73 35.24 71.7 35.23 71.68C35.23 71.65 35.23 71.62 35.24 71.59C35.24 71.56 35.26 71.54 35.27 71.52C35.29 71.49 35.31 71.47 35.34 71.46C37.89 71.55 40.45 71.42 42.97 71.08C42.52 70.95 42.08 70.79 41.65 70.61C41.23 70.44 40.82 70.24 40.44 70C39.74 69.55 39.32 69.08 39.48 68.67C38.51 68.68 37.52 68.72 36.43 68.79L36 68.4C33.86 68.02 32.48 67.71 30.85 67.28C30.45 67.48 30.44 67.85 30.66 68.29C30.99 68.84 31.41 69.32 31.91 69.73C32.49 70.21 33.11 70.64 33.76 71.03C34.22 71.3 34.7 71.54 35.19 71.76L35.26 71.76Z" />
	<path id="Layer" class="shp1" d="M54.09 65.31L54 65.42C55.97 64.47 57.83 63.3 59.52 61.93L58.84 62.3C58.61 62.42 58.38 62.55 58.14 62.69C57.91 62.83 57.68 62.98 57.44 63.14C57.19 63.29 56.94 63.46 56.69 63.62C55.08 64.62 53.39 65.51 51.65 66.26C50.09 66.94 48.47 67.47 46.8 67.84L46.92 67.74C46.51 67.87 46.11 67.98 45.72 68.09C45.33 68.19 44.94 68.25 44.57 68.31L44.94 68.51C45.75 68.26 46.5 68.01 47.23 67.84L48.33 67.54L48.88 67.4L49.43 67.24C51.07 66.81 52.63 66.16 54.09 65.31Z" />
	<path id="Layer" class="shp1" d="M6.42 29.22L6.38 29.37C6.54 28.74 6.7 28.25 6.67 28.99C6.8 27.92 6.68 28.35 6.66 27.7L6.56 28.21C6.52 28.55 6.45 28.88 6.42 29.22Z" />
	<path id="Layer" class="shp1" d="M6.67 27.72L6.58 28.24L6.67 27.72Z" />
	<path id="Layer" class="shp1" d="M25.44 4.14C25.41 4.13 25.39 4.13 25.36 4.12C25.14 4.26 24.89 4.41 24.57 4.6C24.14 4.65 23.92 4.63 24.01 4.45C23.67 4.58 23.32 4.68 22.96 4.77C22.64 4.88 22.34 5.02 22.03 5.15C22.3 5.18 22.58 5.17 22.84 5.1C23.41 4.98 23.97 4.82 24.52 4.63L24.46 4.67C25.12 4.39 25.8 4.16 26.5 3.99C26.69 3.71 26.95 3.48 27.24 3.31C27.09 3.33 27.01 3.31 27.03 3.25C26.5 3.54 25.96 3.79 25.44 4.14Z" />
	<path id="Layer" class="shp1" d="M28.78 2.28C28.8 2.18 28.65 2.15 28.21 2.21C28.12 2.35 28.11 2.45 28.78 2.28Z" />
	<path id="Layer" class="shp1" d="M27.72 2.34C27.37 2.51 27.06 2.74 26.79 3C27 2.95 27.21 2.88 27.43 2.84L27.72 2.34Z" />
	<path id="Layer" class="shp1" d="M24.69 3.86L24.88 3.73C23.67 4.24 23.62 4.18 23.71 3.97C23.79 3.76 24.04 3.46 23.44 3.63L23.08 4.48C23.6 4.23 24.13 4.02 24.69 3.86Z" />
	<path id="Layer" class="shp1" d="M6.37 29.4L6.04 29.44C5.57 31.3 5.47 33.04 5.24 35.47L5.35 35.5L5.32 35.49C5.72 35.02 5.8 33.63 6.1 32.26C6.16 31.31 6.25 30.35 6.38 29.39C6.25 29.9 6.12 30.51 6.07 30.63C6.17 30.21 6.28 29.8 6.37 29.4Z" />
	<path id="Layer" class="shp1" d="M6.06 27.85L6.2 28.19C6.36 27.78 6.51 27.37 6.68 26.96C6.66 27.22 6.65 27.47 6.66 27.73C6.75 27.15 6.89 26.6 6.99 26.07C6.83 26.47 6.66 26.85 6.51 27.16C6.41 27.42 6.26 27.65 6.06 27.85Z" />
	<path id="Layer" class="shp1" d="M7.49 47.04C7.28 46.79 7.11 46.75 7.13 47.01C7.14 47.22 7.17 47.42 7.24 47.62C7.34 48 7.48 48.36 7.65 48.71C7.62 48.44 7.57 48.16 7.55 47.88C7.91 48.81 7.9 48.97 7.86 49.11C7.82 49.24 7.75 49.34 8.13 50.1L8.19 50.23L8.43 50.69C8.6 50.73 8.47 50.16 8.32 49.61C8.17 49.05 8.06 48.49 8.16 48.48C8.01 48.03 7.89 47.56 7.8 47.09C7.75 46.73 7.78 46.54 7.97 46.61C8.2 47.08 8.33 47.59 8.37 48.11C8.37 47.97 8.41 47.92 8.48 47.89C8.27 47.15 7.96 46.45 7.53 45.82C7.2 45.43 6.96 44.97 6.85 44.48C6.89 44.74 6.87 44.93 6.93 45.3C6.97 45.53 7.03 45.75 7.09 45.98C7.2 46.34 7.33 46.7 7.49 47.04Z" />
	<path id="Layer" class="shp1" d="M1.61 32.57L1.62 32.02C1.6 32.2 1.59 32.39 1.61 32.57Z" />
	<path id="Layer" class="shp1" d="M1.48 30.99C1.54 31.05 1.58 31.11 1.61 31.18C1.64 31.25 1.65 31.33 1.65 31.4L1.72 30.36C1.62 30.57 1.54 30.78 1.48 30.99Z" />
	<path id="Layer" class="shp1" d="M19.2 62.78L18.55 62.17C18.34 61.96 18.13 61.74 17.9 61.52C17.43 61.09 16.91 60.6 16.2 60.02L16.09 60C16.52 60.41 16.9 60.8 17.24 61.19C17.58 61.53 17.89 61.9 18.17 62.29C17.6 61.46 18.42 62.21 19.2 62.78Z" />
	<path id="Layer" class="shp1" d="M6.72 43.76L6.69 43.75L6.76 43.98L6.72 43.76Z" />
	<path id="Layer" fill-rule="evenodd" class="shp1" d="M13.03 58.27C13.3 58.47 13.57 58.66 13.83 58.82C14.13 59.29 14.49 59.71 14.91 60.07C15.56 60.5 15.84 60.6 15.93 60.57C16.03 60.54 15.94 60.38 15.88 60.24L16.45 60.38C17.33 61.25 17.44 61.56 17.05 61.47C16.88 61.33 16.73 61.16 16.56 60.98C16.53 61.09 16.61 61.21 16.75 61.36C16.47 61.21 16.21 61.04 15.97 60.86C16.25 61.13 16.55 61.38 16.87 61.6C17.13 61.76 17.34 61.88 17.56 62.01C17.86 62.25 18.1 62.47 18.07 62.63L18.62 62.84L18.76 62.94L18.93 63.09C19.64 63.66 19.32 63.7 19.21 63.62C20.11 64.39 20.97 64.57 20.56 64.41C18.58 63.39 20.08 63.87 18.96 63.04L18.98 62.98L19.54 63.29C19.63 63.38 19.74 63.46 19.84 63.55C19.75 63.44 19.87 63.45 19.97 63.47C20.52 63.9 21.1 64.28 21.72 64.61C21.18 64.06 20.69 63.45 20.2 62.87C20.67 63.2 21.11 63.55 21.59 63.86C23.14 64.88 21.84 64.64 23.92 65.63C22.51 65.74 20.43 64.65 18.76 64.05C18.22 63.65 17.79 63.35 17.43 63.07C17.08 62.79 16.77 62.54 16.44 62.28C15.56 61.52 14.73 60.72 13.94 59.87C13.93 60.06 13.65 59.99 13.23 59.71C12.65 59.32 12.1 58.88 11.6 58.4C10.96 57.84 10.3 57.13 9.66 56.45C9.01 55.76 8.44 55.04 7.98 54.44C7.69 53.88 7.44 53.32 7.2 52.75C5.71 50.78 4.46 48.64 3.47 46.38C2.23 43.54 1.44 40.51 1.15 37.43C1.16 36.63 1.09 35.89 1.09 35.25C1.06 34.69 1.17 34.14 1.39 33.63L1.41 33.94C1.48 33.67 1.55 33.4 1.62 33.12C1.65 35.08 1.88 37.03 2.29 38.94C2.64 40.53 3.12 42.08 3.71 43.59C3.77 44.16 3.88 44.71 3.98 45.27C4.1 45.59 4.26 45.94 4.43 46.31C4.6 46.68 4.76 47.06 4.95 47.45C5.34 48.22 5.73 48.99 6.15 49.66C6.47 50.21 6.84 50.73 7.25 51.22C7.55 51.57 7.76 51.71 7.82 51.55C8.18 52.24 8.46 52.78 8.7 53.21L9.37 54.32C9.56 54.65 9.78 54.93 10.03 55.28C10.27 55.63 10.53 56.02 10.91 56.5L11.19 56.72C11.14 56.75 11.08 56.77 11.14 56.92C11.32 57.26 11.54 57.57 11.81 57.85C11.47 57.4 11.35 57.19 11.36 57.1C11.37 57 11.46 57.02 11.54 57.01L12.55 57.86C12.68 58.02 12.81 58.18 12.92 58.33C13.01 58.46 13.11 58.59 13.19 58.72C13.32 58.93 13.34 59.05 13.18 59L13.88 59.27C13.58 58.95 13.3 58.61 13.03 58.27ZM19.21 63.62C19.2 63.62 19.19 63.61 19.19 63.61C19.19 63.61 19.2 63.62 19.21 63.62ZM13.18 59L13.16 58.99C13.17 58.99 13.17 59 13.18 59ZM16.86 61.83L17.67 62.57C18.06 63.13 18.55 63.62 19.12 64C18.95 63.67 18.28 63.13 17.67 62.57C17.42 62.3 17.15 62.05 16.86 61.83Z" />
	<path id="Layer" class="shp1" d="M5.72 37.62C5.71 37.13 5.74 36.63 5.8 36.13L5.43 35.64C5.39 36.07 5.4 36.51 5.47 36.94C5.54 37.17 5.62 37.4 5.72 37.62Z" />
	<path id="Layer" class="shp1" d="M19.47 63.2L19.07 62.83L19.02 62.91C19.19 63.01 19.33 63.1 19.47 63.2Z" />
	<path id="Layer" class="shp1" d="M9.47 15.19L9.51 15.05C8.94 15.84 8.38 16.58 7.87 17.36C8.09 17.19 8.28 16.97 8.43 16.73C8.68 16.41 9.02 15.91 9.47 15.19Z" />
	<path id="Layer" class="shp1" d="M5.62 41.28C5.78 41.51 6.08 42.21 5.92 41.2L6.04 41.82L6.15 42.3C6.19 42.5 6.22 42.71 6.23 42.91C6.24 43.19 6.17 43.24 6.1 43.28C5.95 43.35 5.77 43.34 6.27 44.89L6.28 44.19C6.38 44.52 6.45 44.86 6.56 45.19C6.45 44.62 6.4 44.03 6.43 43.45C6.34 42.76 6.21 42.14 6.13 41.55C6.04 40.95 5.93 40.39 5.88 39.84C5.86 39.93 5.86 40.03 5.85 40.15C5.86 40.03 5.87 39.93 5.88 39.84C5.83 39.34 5.76 38.84 5.74 38.34C5.61 38.7 5.56 39.09 5.61 39.47C5.61 39.75 5.61 40.06 5.62 40.37C5.62 40.68 5.63 40.99 5.62 41.28Z" />
	<path id="Layer" class="shp1" d="M9.65 19.22C9.39 19.82 9.1 20.43 8.83 21.1C8.73 21.69 8.93 21.33 8.6 22.26C8.77 21.6 8.53 21.99 8.26 22.53L7.81 23.83C8.08 23.37 8.43 22.95 8.84 22.6C9.26 22.25 9.6 21.82 9.84 21.33C11.58 18.28 12.79 16.44 13.93 14.72L12.89 15.92C12.5 16.4 12.01 16.8 11.45 17.09C10.99 17.4 10.44 17.83 9.65 19.22Z" />
	<path id="Layer" class="shp1" d="M13.33 57.82C13.1 57.32 12.86 56.81 12.65 56.28L12.52 56.09C12.63 56.38 12.76 56.66 12.88 56.94C12.59 56.62 12.34 56.28 12.11 55.92C11.99 55.73 11.89 55.53 11.82 55.32C11.74 55.05 11.91 55.04 12.21 55.24C11.21 53.98 11.04 53.48 10.91 53.07C10.77 52.67 10.63 52.39 9.9 51.39C10.08 52.15 10.35 52.9 10.69 53.61L10.09 52.64L10.16 52.89C11.36 54.76 11.46 55.79 13.33 57.82Z" />
	<path id="Layer" class="shp1" d="M8.44 49.45L8.52 49.78C8.77 49.95 9.3 50.61 8.81 49.6C9.6 51.08 9.75 51.46 9.69 51.62C9.63 51.77 9.41 51.7 9.59 52.18C9.21 52.09 9.71 53.05 9.12 52.51L9.01 52.17L9.08 52.47C8.96 52.35 8.81 52.19 8.61 51.96C8.4 51.61 8.22 51.23 8.08 50.84C8.01 50.69 7.98 50.53 7.99 50.37C8.03 50.21 8.17 50.26 8.14 50.06L8.2 50.18L8.6 51.01C8.73 50.44 8.64 50.4 8.44 49.45ZM8.96 51.17L9.06 51.97C9.79 52.83 9.2 51.75 8.96 51.17L8.92 50.86C8.83 50.78 8.86 50.94 8.96 51.17Z" />
	<path id="Layer" class="shp1" d="M19.13 64C18.97 63.67 18.3 63.13 17.68 62.57C18.07 63.14 18.56 63.62 19.13 64Z" />
	<path id="Layer" class="shp1" d="M16.86 61.83L17.67 62.57C17.42 62.3 17.15 62.06 16.86 61.83Z" />
	<path id="Layer" class="shp1" d="M17.55 62.01C17.85 62.25 18.09 62.47 18.06 62.63L18.61 62.84L18.75 62.95C18.38 62.6 17.98 62.28 17.55 62.01Z" />
	<path id="Layer" class="shp1" d="M16.57 60.99C16.54 61.09 16.62 61.22 16.76 61.36C16.85 61.42 16.95 61.46 17.06 61.48C16.88 61.34 16.73 61.17 16.57 60.99Z" />
	<path id="Layer" class="shp1" d="M19.19 63.58C20.1 64.35 20.97 64.54 20.57 64.38C18.59 63.36 20.08 63.84 18.96 63.01L18.95 63.06C19.68 63.68 19.28 63.69 19.19 63.58Z" />
	<path id="Layer" class="shp1" d="M19.02 62.91L19.01 62.97L19.57 63.29L19.49 63.21C19.33 63.1 19.19 63.01 19.02 62.91Z" />
	<path id="Layer" class="shp1" d="M11.8 57.85C11.46 57.41 11.34 57.19 11.35 57.1C11.35 57.01 11.45 57.03 11.53 57.02C11.41 56.92 11.3 56.81 11.16 56.72C11.1 56.75 11.04 56.77 11.11 56.92C11.29 57.26 11.52 57.58 11.8 57.85Z" />
	<path id="Layer" class="shp1" d="M13.15 59L13.87 59.27C13.58 58.95 13.3 58.61 13.03 58.27C12.87 58.13 12.7 58 12.54 57.86C12.67 58.03 12.8 58.19 12.91 58.34C13 58.46 13.09 58.59 13.18 58.73C13.31 58.94 13.33 59.07 13.15 59Z" />
	<path id="Layer" class="shp1" d="M9.07 52.49L9.12 52.53L9 52.19L9.07 52.49Z" />
	<path id="Layer" class="shp1" d="M8.96 51.17L8.92 50.86C8.83 50.78 8.86 50.94 8.96 51.17Z" />
	<path id="Layer" class="shp1" d="M8.96 51.17L9.06 51.97C9.79 52.83 9.2 51.75 8.96 51.17Z" />
	<path id="Layer" class="shp1" d="M6.42 29.22C6.45 28.88 6.52 28.55 6.58 28.23C6.52 28.55 6.45 28.88 6.42 29.22Z" />
	<path id="Layer" class="shp1" d="M6.2 28.16L6.34 28.49C6.22 28.8 6.12 29.12 6.04 29.44L6.37 29.4C6.26 29.82 6.16 30.2 6.1 30.62C6.13 30.49 6.28 29.89 6.41 29.38L6.45 29.23C6.49 28.89 6.55 28.56 6.61 28.24L6.7 27.71C6.69 27.46 6.7 27.21 6.72 26.95C6.51 27.34 6.37 27.75 6.2 28.16Z" />
	<path id="Layer" class="shp0" d="M14.56 58.39C14.73 58.58 14.89 58.77 15.06 58.93C14.93 58.78 14.77 58.6 14.56 58.39Z" />
	<path id="Layer" class="shp0" d="M20.16 63.28C20.27 63.54 19.75 63.21 19.2 62.79C19.45 63.03 19.71 63.25 19.99 63.46C20.15 63.48 20.37 63.52 20.16 63.28Z" />
	<path id="Layer" class="shp0" d="M15.06 58.94C15.34 59.34 15.58 59.76 15.77 60.21L15.88 60.24C15.83 60.09 15.83 59.96 16.09 60L15.06 58.94Z" />
	<path id="Layer" class="shp0" d="M17.05 61.48C17.41 61.8 17.78 62.1 18.17 62.39C18.5 62.61 18.79 62.77 19.04 62.92L19.08 62.83L19.48 63.2L19.66 63.33L19.56 63.31C19.66 63.4 19.76 63.48 19.86 63.56C19.78 63.46 19.89 63.47 19.99 63.48C19.72 63.27 19.46 63.05 19.21 62.81C18.43 62.24 17.61 61.5 18.18 62.31C17.9 61.91 17.59 61.54 17.24 61.19C16.89 60.81 16.53 60.42 16.09 60C15.84 59.94 15.83 60.09 15.88 60.24L16.45 60.38C17.33 61.25 17.44 61.57 17.05 61.48Z" />
	<path id="Layer" class="shp0" d="M18.92 63.1L18.74 62.97L18.92 63.1Z" />
	<path id="Layer" class="shp0" d="M16.75 61.36C16.47 61.21 16.21 61.05 15.97 60.86C16.25 61.13 16.55 61.38 16.87 61.6C17.13 61.77 17.34 61.88 17.55 62.01C17.27 61.81 17 61.59 16.75 61.36Z" />
	<path id="Layer" class="shp0" d="M18.96 63.03L18.97 62.97L18.5 62.71C18.7 62.84 18.84 62.95 18.96 63.03Z" />
	<path id="Layer" class="shp0" d="M19.47 63.2L19.56 63.28L19.65 63.31L19.47 63.2Z" />
	<path id="Layer" class="shp0" d="M17.05 61.48C16.94 61.45 16.84 61.41 16.75 61.36C17 61.6 17.26 61.81 17.54 62.01C17.98 62.29 18.38 62.6 18.75 62.95L18.93 63.08L18.94 63.03C18.82 62.94 18.68 62.84 18.5 62.71L18.97 62.97L18.99 62.91C18.74 62.76 18.46 62.6 18.13 62.38C17.75 62.1 17.39 61.8 17.05 61.48Z" />
	<path id="Layer" class="shp0" d="M40.18 0.81C40.25 0.84 40.33 0.87 40.4 0.89C40.62 0.9 40.85 0.93 41.07 0.94C40.77 0.89 40.5 0.85 40.18 0.81Z" />
	<path id="Layer" class="shp0" d="M44.64 1.7C45.07 1.81 45.49 1.94 45.9 2.09C46.11 2.11 46.3 2.14 46.5 2.17C46.33 2.13 46.18 2.06 46.01 1.99C46.24 1.82 45.83 1.61 45.09 1.45C45.39 1.62 45.52 1.77 44.64 1.7Z" />
	<path id="Layer" class="shp0" d="M44.49 1.98L44.56 1.99L44.04 1.94C44.81 2.16 45.59 2.34 46.34 2.61L46.45 2.56C46.21 2.45 45.96 2.34 45.7 2.26C45.38 2.17 44.99 2.08 44.49 1.98Z" />
	<path id="Layer" class="shp0" d="M42.74 1.24C43.36 1.38 43.95 1.49 44.52 1.67C45.05 1.53 44.96 1.44 44.6 1.34C44.04 1.23 43.48 1.15 42.91 1.1C42.31 1.01 41.66 0.99 41.05 0.94L41.07 0.94C41.64 0.96 42.2 1.06 42.74 1.24Z" />
	<path id="Layer" class="shp0" d="M45.63 2.05C44.86 1.91 44.08 1.73 43.3 1.63C43.52 1.69 43.73 1.73 43.94 1.77C44.15 1.82 44.34 1.87 44.54 1.9C44.92 1.97 45.29 2.02 45.63 2.05Z" />
	<path id="Layer" class="shp0" d="M49.79 3.33L50.38 3.55C50.49 3.57 50.61 3.61 50.73 3.67L50.79 3.68C50.62 3.47 50.44 3.27 50.25 3.07C49.86 2.97 49.48 2.87 49.08 2.8C48.68 2.73 48.27 2.65 47.83 2.54L47.98 2.7C48.49 2.84 48.97 3.06 49.41 3.35C49.55 3.37 49.7 3.39 49.85 3.41C49.85 3.41 49.84 3.37 49.79 3.33Z" />
	<path id="Layer" class="shp0" d="M46.49 2.17C46.3 2.14 46.1 2.11 45.9 2.09L46.12 2.17C45.96 2.13 45.8 2.08 45.64 2.04C45.29 2.01 44.93 1.96 44.54 1.89C44.35 1.84 44.16 1.79 43.94 1.76C43.73 1.73 43.52 1.65 43.3 1.62L43 1.58C43.49 1.7 44 1.81 44.49 1.96C44.98 2.11 45.39 2.15 45.7 2.27C45.96 2.35 46.21 2.45 46.45 2.57L46.89 2.39C47.26 2.47 47.62 2.58 47.98 2.71L47.83 2.55C47.42 2.43 46.99 2.34 46.49 2.17Z" />
	<path id="Layer" class="shp0" d="M41.09 0.94C41.7 1.05 42.24 1.12 42.76 1.24C42.22 1.06 41.66 0.96 41.09 0.94Z" />
	<path id="Layer" class="shp0" d="M44.54 1.67L44.64 1.7C45.53 1.77 45.39 1.62 45.09 1.45L44.62 1.33C44.98 1.45 45.07 1.54 44.54 1.67Z" />
	<path id="Layer" class="shp0" d="M50.38 3.55L50.73 3.67C50.61 3.62 50.49 3.58 50.38 3.55Z" />
	<path id="Layer" class="shp0" d="M49.85 3.42C49.7 3.38 49.55 3.36 49.42 3.36L49.58 3.49C49.66 3.47 49.84 3.47 49.85 3.42Z" />
	<path id="Layer" class="shp0" d="M49.84 3.72C49.75 3.64 49.66 3.56 49.57 3.49C49.48 3.54 49.49 3.56 49.84 3.72Z" />
	<path id="Layer" class="shp0" d="M40.4 0.89C39.83 0.87 39.26 0.82 38.69 0.74C38.84 0.78 38.99 0.82 39.12 0.85C39.57 0.86 40.02 0.87 40.41 0.87L40.4 0.89Z" />
	<path id="Layer" class="shp0" d="M41.3 1.82L41.52 1.81L40.98 1.72C41.09 1.76 41.19 1.79 41.3 1.82Z" />
	<path id="Layer" class="shp0" d="M40.8 1.58C40.77 1.61 40.78 1.64 40.88 1.68L41.34 1.68L40.8 1.58Z" />
	<path id="Layer" class="shp0" d="M42.75 1.64C41.02 1.22 39.24 0.98 37.46 0.91C37.65 0.98 37.84 1.08 38.01 1.21L38.46 1.29C38.28 1.26 38.11 1.2 37.94 1.13L38.82 1.15C39.11 1.16 39.39 1.19 39.66 1.2L40.48 1.27C40.75 1.31 41.01 1.36 41.28 1.4C41.2 1.43 41.12 1.46 41.04 1.48C41.67 1.54 42.3 1.59 42.92 1.69L42.75 1.64Z" />
	<path id="Layer" class="shp0" d="M36.53 0.78C36.84 0.78 37.15 0.83 37.45 0.9C37.66 0.9 37.87 0.89 38.08 0.89C37.9 0.84 37.74 0.84 37.52 0.81C37.19 0.77 36.86 0.76 36.53 0.78Z" />
	<path id="Layer" class="shp0" d="M42.92 1.69C42.3 1.59 41.67 1.54 41.04 1.48C40.95 1.5 40.87 1.53 40.8 1.58L41.32 1.68L40.87 1.68L40.97 1.7L41.51 1.79C42.09 1.77 42.66 1.78 43.24 1.79L42.92 1.69Z" />
	<path id="Layer" class="shp0" d="M42.75 1.64C42.31 1.48 41.86 1.36 41.45 1.24C41.05 1.12 40.69 1 40.42 0.89C40.01 0.89 39.57 0.88 39.13 0.87L39.53 1C38.73 0.94 38.37 0.93 38.08 0.89C37.87 0.89 37.66 0.9 37.45 0.9C39.24 0.97 41.02 1.22 42.75 1.64Z" />
	<path id="Layer" class="shp0" d="M38.7 1.43C38.81 1.4 38.66 1.35 38.46 1.29L38.01 1.21C38.23 1.32 38.46 1.39 38.7 1.43Z" />
	<path id="Layer" class="shp0" d="M37.22 1.52L37.45 1.52L37.22 1.52Z" />
	<path id="Layer" class="shp0" d="M37.44 1.51C37.81 1.51 38.18 1.5 38.55 1.46L37.44 1.51Z" />
	<path id="Layer" class="shp0" d="M38.78 1.45L38.7 1.43C38.65 1.45 38.6 1.46 38.54 1.46L38.78 1.45Z" />
	<path id="Layer" class="shp0" d="M34.86 1.41L34.49 1.57C34.78 1.62 35.07 1.66 34.91 1.72L35.36 1.72L35.03 1.47C35.48 1.41 35.93 1.41 36.38 1.45C36.26 1.4 36.13 1.37 36.01 1.35L35.43 1.37L34.86 1.41Z" />
	<path id="Layer" class="shp0" d="M35.4 1.06L35.38 1.06L34.56 1.2C34.7 1.2 34.86 1.19 35.06 1.18C35.17 1.13 35.28 1.09 35.4 1.06Z" />
	<path id="Layer" class="shp0" d="M34.38 1.63C34.26 1.71 34.32 1.76 34.92 1.73C34.74 1.71 34.56 1.67 34.38 1.63Z" />
	<path id="Layer" class="shp0" d="M35.04 1.19C34.84 1.2 34.68 1.21 34.55 1.21L33.78 1.34C35.32 1.17 35.19 1.27 34.85 1.42L35.43 1.37L36 1.36C35.54 1.28 34.86 1.29 35.04 1.19Z" />
	<path id="Layer" class="shp0" d="M35.5 1.04C35.46 1.03 35.42 1.05 35.38 1.06L35.4 1.07L35.5 1.04Z" />
	<path id="Layer" class="shp0" d="M34.9 1.72C35.04 1.65 34.76 1.61 34.49 1.57C34.45 1.59 34.42 1.61 34.38 1.63C34.55 1.67 34.73 1.7 34.9 1.72Z" />
	<path id="Layer" class="shp0" d="M47.36 1.88L47.4 1.71L47.58 1.79C47.54 1.74 47.75 1.78 48.57 2.05C49.91 2.1 47.53 1.73 47.82 1.58C47.23 1.65 46.62 1.56 46.08 1.31C46.01 1.32 45.95 1.33 45.88 1.33C46.35 1.58 46.84 1.76 47.36 1.88Z" />
	<path id="Layer" class="shp0" d="M47.44 2.26C48.25 2.41 48.33 2.34 48.15 2.19L47.87 2.12C47.85 2.19 47.72 2.22 47.44 2.26Z" />
	<path id="Layer" class="shp0" d="M46.05 1.31C45.94 1.29 45.83 1.23 45.72 1.18L45.68 1.18C45.73 1.24 45.79 1.29 45.85 1.33C45.92 1.33 45.98 1.32 46.05 1.31Z" />
	<path id="Layer" class="shp0" d="M47.36 1.88C47.68 1.96 47.89 2.07 47.87 2.14L48.15 2.21C47.99 2.07 47.61 1.87 47.56 1.81L47.38 1.73L47.36 1.88Z" />
	<path id="Layer" class="shp0" d="M50.05 2.82C50.39 2.9 50.73 2.99 51.08 3.08C50.76 2.88 50.43 2.7 50.11 2.51L50.05 2.82Z" />
	<path id="Layer" class="shp0" d="M46.57 2.86L46.71 2.83L45.63 2.54L44.54 2.31L45.57 2.56L46.57 2.86Z" />
	<path id="Layer" class="shp0" d="M61.58 10.32C61.68 10.35 61.67 10.25 61.59 10.12C61.45 10.05 61.41 10.09 61.58 10.32Z" />
	<path id="Layer" class="shp0" d="M61.5 9.99L61.59 10.12C61.64 10.14 61.68 10.16 61.72 10.19L61.5 9.99Z" />
	<path id="Layer" class="shp0" d="M62.97 10.63L62.92 10.51C62.92 10.51 62.93 10.56 62.97 10.63Z" />
	<path id="Layer" class="shp0" d="M58.18 6.66L57.81 6.33C57.77 6.37 57.85 6.48 58 6.63C58.06 6.63 58.12 6.64 58.18 6.66Z" />
	<path id="Layer" class="shp0" d="M62.97 10.63L63.13 11C63.25 11.1 63.35 11.19 63.45 11.26C63.35 11.18 63.25 11.11 63.15 11.04L63.28 11.33L62.86 10.98C62.91 11.16 63.23 11.59 63.08 11.54C63.08 11.54 63.08 11.54 63.07 11.57C65.22 13.68 62.8 10.84 64.32 12.12C64.05 11.89 63.79 11.64 63.56 11.36C63.35 11.13 63.15 10.89 62.97 10.63Z" />
	<path id="Layer" class="shp0" d="M61.21 9.62L61.4 9.77C61.56 9.81 61.44 9.63 61.21 9.36C60.97 9.1 60.58 8.78 60.24 8.48C59.54 7.85 58.93 7.42 59.81 7.87L59.72 7.72C59.5 7.62 59.49 7.78 59.02 7.5C58.82 7.3 58.63 7.08 58.42 6.89L58.15 6.77C58.52 7.09 59.08 7.59 59.67 8.11C60.21 8.59 60.72 9.09 61.21 9.62Z" />
	<path id="Layer" class="shp0" d="M62.86 10.99C62.37 10.56 61.85 10.17 61.35 9.77C61.37 9.78 61.39 9.79 61.41 9.79L61.22 9.64C61.33 9.76 61.42 9.88 61.52 10.01L61.73 10.21C62.22 10.47 63.12 11.35 63.09 11.56C63.22 11.59 62.91 11.16 62.86 10.99Z" />
	<path id="Layer" class="shp0" d="M63.45 11.26C63.35 11.19 63.25 11.1 63.13 11L63.15 11.04C63.25 11.11 63.35 11.18 63.45 11.26Z" />
	<path id="Layer" class="shp0" d="M58.42 6.9L58.18 6.67C58.13 6.65 58.07 6.63 58.02 6.63L58.15 6.76L58.42 6.9Z" />
	<path id="Layer" class="shp0" d="M60.21 8.1C60.07 7.95 59.9 7.82 59.72 7.72L59.81 7.87C59.95 7.94 60.08 8.02 60.21 8.1Z" />
	<path id="Layer" class="shp0" d="M61.2 9.02C62 9.72 63.04 10.12 62.69 9.92C62.25 9.56 61.79 9.25 61.44 8.92C61.34 8.89 61.2 8.82 61.06 8.74L61.2 9.02Z" />
	<path id="Layer" class="shp0" d="M60.84 8.34L60.9 8.45L60.98 8.5C60.93 8.45 60.89 8.4 60.84 8.34Z" />
	<path id="Layer" class="shp0" d="M61.44 8.92C61.27 8.79 61.12 8.65 60.98 8.5L60.9 8.45L61.06 8.74C61.21 8.82 61.34 8.88 61.44 8.92Z" />
	<path id="Layer" class="shp0" d="M53.11 4.6L53.46 4.78C52.27 4.03 51.82 4.25 51.04 4C51.36 4.25 52.04 4.55 52.62 4.92C53.12 5.15 53.72 5.39 53.89 5.47C53.96 5.51 53.93 5.51 53.89 5.47C53.86 5.58 53.63 5.49 53.32 5.32C53.44 5.4 53.56 5.47 53.66 5.55C53.27 5.46 52.89 5.34 52.52 5.2C52.71 5.33 52.9 5.47 53.15 5.64C53.28 5.59 53.43 5.59 53.56 5.63C53.77 5.7 53.98 5.78 54.18 5.87C54.63 6.06 55.16 6.3 55.59 6.44C55.09 6.04 54.56 5.67 54.01 5.33C53.46 5 53.01 4.71 53.11 4.6Z" />
	<path id="Layer" class="shp0" d="M53.9 5.47C53.73 5.4 53.13 5.15 52.63 4.92C52.88 5.07 53.12 5.21 53.33 5.34C53.65 5.5 53.87 5.59 53.9 5.47Z" />
	<path id="Layer" class="shp0" d="M53.91 5.45C53.91 5.45 53.99 5.5 53.91 5.45L53.91 5.45Z" />
	<path id="Layer" class="shp0" d="M53.67 5.57C53.57 5.49 53.46 5.42 53.34 5.34C53.04 5.2 52.67 4.97 52.35 4.79C52.19 4.73 52.04 4.66 51.9 4.57C52.05 4.63 52.21 4.71 52.35 4.79C52.44 4.81 52.54 4.88 52.64 4.92C52.04 4.55 51.37 4.25 51.06 4.01C50.83 3.93 50.6 3.85 50.39 3.75C50.92 4.08 51.27 4.35 51.63 4.58L51.77 4.62C51.77 4.62 51.77 4.62 51.78 4.59C51.86 4.61 51.83 4.63 51.77 4.62C51.77 4.62 51.77 4.62 51.76 4.65C52.01 4.81 52.27 4.99 52.57 5.21C52.93 5.36 53.29 5.48 53.67 5.57Z" />
	<path id="Layer" class="shp0" d="M51.9 4.57C52.04 4.66 52.19 4.73 52.35 4.79C52.21 4.71 52.05 4.63 51.9 4.57Z" />
	<path id="Layer" class="shp0" d="M53.34 5.34C53.12 5.21 52.89 5.07 52.64 4.92C52.53 4.9 52.44 4.83 52.35 4.79C52.67 4.97 53.04 5.19 53.34 5.34Z" />
	<path id="Layer" class="shp0" d="M51.72 4.66C51.72 4.66 51.72 4.66 51.73 4.63L51.61 4.6L51.72 4.66Z" />
	<path id="Layer" class="shp0" d="M51.76 4.6C51.76 4.6 51.76 4.6 51.76 4.63C51.82 4.65 51.84 4.65 51.76 4.6Z" />
	<path id="Layer" class="shp0" d="M73.17 34.32L73.2 34.59C73.31 34.16 73.42 33.74 73.53 33.32L73.48 33.07L73.33 33.68L73.17 34.32Z" />
	<path id="Layer" class="shp0" d="M66.68 15.11L66.57 14.84C66.2 14.3 66.41 14.31 66.51 14.26C66.6 14.21 66.58 14.19 66.48 14.05C66.26 13.76 66 13.5 65.72 13.26C66.2 14.12 65.44 13.55 66.68 15.11Z" />
	<path id="Layer" class="shp1" d="M67.85 16.9L67.97 17.09L67.89 16.79C67.82 16.68 67.77 16.57 67.72 16.45C67.75 16.6 67.79 16.75 67.85 16.9Z" />
	<path id="Layer" class="shp0" d="M73.23 28.41C73.3 28.7 73.35 29.06 73.49 29.49C73.42 29.12 73.34 28.76 73.23 28.41Z" />
	<path id="Layer" class="shp0" d="M73.3 37.03C73.35 37.24 73.38 37.02 73.42 36.7C73.39 36.82 73.35 36.93 73.3 37.03Z" />
	<path id="Layer" class="shp0" d="M73.71 35.9C73.68 35.7 73.66 35.49 73.62 35.29C73.61 35.41 73.6 35.52 73.59 35.63C73.62 35.62 73.67 35.68 73.71 35.9Z" />
	<path id="Layer" class="shp0" d="M73.59 35.64C73.6 35.52 73.61 35.41 73.62 35.29L73.41 34.34C73.37 34.57 73.32 34.61 73.27 34.86C73.25 35.07 73.24 35.27 73.24 35.48C73.23 35.77 73.22 36.17 73.22 36.73C73.23 36.84 73.25 36.94 73.27 37.04C73.33 36.93 73.37 36.82 73.39 36.7C73.41 36.34 73.47 35.98 73.59 35.64Z" />
	<path id="Layer" class="shp0" d="M73.43 33.37C73.43 33.66 73.42 33.94 73.4 34.23L73.42 34.33C73.46 34.02 73.47 33.69 73.43 33.37Z" />
	<path id="Layer" class="shp0" d="M73.08 28.02C73.14 28.14 73.19 28.28 73.23 28.41L73.14 27.89C73.09 27.88 73.06 27.95 73.08 28.02Z" />
	<path id="Layer" class="shp0" d="M72.73 30.71C72.86 31.3 73.02 32.13 73.12 32.6C73.17 32.24 73.21 31.88 73.23 31.52C72.9 30.38 72.77 30.31 72.73 30.71Z" />
	<path id="Layer" class="shp0" d="M72.11 25.02C72.25 25.31 72.38 25.53 72.49 25.8C72.4 25.44 72.26 25.09 72.2 24.86L71.86 24.42C71.96 24.61 72.04 24.81 72.11 25.02Z" />
	<path id="Layer" class="shp0" d="M70.98 24.43C71.75 26.21 71.35 24.78 71.27 24.1C71.15 23.91 71.05 23.74 70.95 23.57C71.07 24.03 71.22 24.66 70.98 24.43Z" />
	<path id="Layer" class="shp0" d="M73.78 32.02C73.79 32.29 73.77 32.57 73.72 32.84C73.85 33.5 73.88 33.3 73.88 32.92C73.83 32.61 73.81 32.34 73.79 32.1L73.78 32.02Z" />
	<path id="Layer" class="shp0" d="M73.34 30.19C73.39 30.24 73.43 30.29 73.47 30.34C73.44 30.25 73.4 30.12 73.36 29.97C73.36 30.04 73.35 30.12 73.34 30.19Z" />
	<path id="Layer" class="shp0" d="M73.79 32.1L73.88 32.69C73.87 32.12 73.84 31.46 73.99 32.52C73.99 31.96 73.94 31.4 73.83 30.86C73.78 30.69 73.72 30.78 73.66 30.76C73.74 31.2 73.78 31.65 73.79 32.1Z" />
	<path id="Layer" class="shp0" d="M71.91 23.84C72.09 24.33 71.97 24.18 71.88 24.08C72.21 24.93 72.21 24.55 72.27 24.51C72.12 24.04 71.92 23.59 71.68 23.16C71.75 23.35 71.8 23.55 71.83 23.75L71.91 23.84Z" />
	<path id="Layer" class="shp0" d="M71.95 26.19C71.9 25.96 71.85 25.72 71.78 25.5C71.46 25.63 71.68 26.45 71.95 27.37C71.94 26.85 71.63 25.67 71.95 26.19Z" />
	<path id="Layer" class="shp0" d="M72.17 26.91C72.15 26.93 72.15 26.99 72.13 27.08C72.16 26.96 72.28 27.07 72.47 27.54C72.42 27.38 72.36 27.23 72.3 27.09C72.24 27.04 72.2 26.98 72.17 26.91Z" />
	<path id="Layer" class="shp0" d="M72.2 28.01C72.22 28.16 72.22 28.31 72.21 28.46C72.27 28.71 72.32 28.96 72.33 29.21L72.35 29.15C72.32 28.75 72.24 28.36 72.2 28.01Z" />
	<path id="Layer" class="shp0" d="M72.97 30.58C72.92 30.26 72.87 29.89 72.83 29.49C72.8 29.07 72.75 28.65 72.67 28.23C72.68 28.65 72.67 29.06 72.65 29.48C72.71 29.98 72.78 30.43 72.97 30.58Z" />
	<path id="Layer" class="shp0" d="M72.34 29.6C72.34 29.73 72.32 29.86 72.27 29.98L72.21 29.73C72.19 30.09 72.2 30.44 72.16 30.8C72.36 31.15 72.44 30.8 72.42 30.21C72.39 30.01 72.36 29.8 72.34 29.6Z" />
	<path id="Layer" class="shp0" d="M70.87 23.06L70.86 23.09L70.9 23.18C70.88 23.14 70.87 23.1 70.87 23.06Z" />
	<path id="Layer" class="shp0" d="M72.11 26.14L72.24 26.76C72.2 26.55 72.15 26.34 72.11 26.14Z" />
	<path id="Layer" class="shp0" d="M71.26 22.08C71.38 22.22 71.49 22.36 71.61 22.49C71.06 21.1 71.18 21.77 71.06 21.72C71.12 21.83 71.19 21.95 71.26 22.08Z" />
	<path id="Layer" class="shp0" d="M71.27 23.12L71.5 23.37C71.62 23.4 71.68 23.33 71.57 22.94L71.18 22.29C71.01 22.02 70.85 21.74 70.71 21.46L71.16 21.96L71.01 21.67C70.87 21.48 70.75 21.26 70.65 21.03C70.88 21.21 70.22 19.57 69.69 18.96C71.55 22.04 69.45 19.75 69.79 20.48C69.7 20.34 69.58 20.06 69.43 19.77C69.55 20.12 69.7 20.46 69.89 20.78C69.58 20.33 69.35 19.83 69.2 19.31C69.85 21.34 70.41 21.04 71.17 23.14C71.25 23.19 71.32 23.25 71.4 23.3C71.34 23.25 71.31 23.18 71.27 23.12Z" />
	<path id="Layer" class="shp0" d="M69.88 20.81C69.69 20.49 69.54 20.15 69.42 19.8C69.36 19.65 69.27 19.51 69.18 19.37C69.34 19.88 69.58 20.37 69.88 20.81Z" />
	<path id="Layer" class="shp0" d="M73.88 32.92L73.88 32.69L73.79 32.1C73.79 32.34 73.83 32.63 73.88 32.92Z" />
	<path id="Layer" class="shp0" d="M72.2 28.01C72.15 27.71 72.13 27.4 72.13 27.1C72.13 27 72.14 26.94 72.18 26.93C72.07 26.7 72 26.46 71.95 26.21C71.64 25.68 71.94 26.87 71.95 27.39L72.22 28.48C72.23 28.32 72.22 28.17 72.2 28.01Z" />
	<path id="Layer" class="shp0" d="M72.32 29.2C72.33 29.33 72.34 29.47 72.33 29.6C72.35 29.8 72.37 30 72.41 30.2C72.4 29.9 72.37 29.53 72.33 29.14L72.32 29.2Z" />
	<path id="Layer" class="shp0" d="M71.26 22.08C71.19 21.95 71.12 21.83 71.05 21.72L71.01 21.69L71.16 21.97L71.26 22.08Z" />
	<path id="Layer" class="shp0" d="M72.59 27.13C72.51 26.81 72.4 26.49 72.27 26.19C72.33 26.51 72.44 26.83 72.59 27.13Z" />
	<path id="Layer" class="shp0" d="M73.38 32.64L73.43 33.37C73.44 32.93 73.44 32.48 73.43 32.03C73.42 31.58 73.37 31.12 73.33 30.66C73.49 30.52 73.71 31.29 73.76 32.05L73.78 32.13C73.77 31.68 73.72 31.23 73.64 30.79C73.58 30.77 73.53 30.67 73.45 30.38C73.41 30.32 73.37 30.27 73.32 30.22C73.34 30.15 73.34 30.08 73.35 30C73.25 29.65 73.17 29.16 73 28.42C72.96 28 72.99 27.95 73.06 28.05C73.05 27.96 73.09 27.92 73.12 27.92C73.11 27.54 72.97 27.17 72.74 26.87L72.88 27.01C73.15 27.97 72.6 26.66 72.75 27.52C72.98 28.05 73.07 28.62 73.02 29.19C73 29.41 73.01 29.64 73.05 29.86C73.12 30.22 73.22 30.58 73.34 30.94C73.21 30.76 73.12 30.55 73.08 30.33C73 30.04 72.95 29.75 72.92 29.45C72.86 28.79 72.77 28.03 72.63 27.3C72.33 26.76 72.14 26.17 72.08 25.56C71.94 24.79 71.71 24.04 71.39 23.32C71.31 23.27 71.24 23.21 71.16 23.16C71.22 23.33 71.27 23.5 71.33 23.7C71.05 23.18 70.92 23.04 70.88 23.07C70.88 23.11 70.89 23.15 70.91 23.18L70.87 23.09C70.88 23.25 70.91 23.41 70.95 23.56C71.06 23.76 71.16 23.93 71.27 24.09C71.23 23.87 71.23 23.73 71.34 23.82C71.55 24.18 71.72 24.56 71.83 24.95C71.9 25.15 71.95 25.36 72 25.55L72.12 26.14C72.17 26.34 72.21 26.54 72.26 26.78L72.35 27.11C72.42 27.26 72.47 27.41 72.52 27.56L72.69 27.98L72.7 28.25C72.78 28.67 72.84 29.09 72.87 29.51C72.9 29.91 72.95 30.28 73 30.6C72.81 30.45 72.74 30 72.68 29.5L72.65 30.3C72.7 30.44 72.74 30.58 72.76 30.73C72.8 30.33 72.93 30.4 73.26 31.56C73.24 31.92 73.2 32.28 73.14 32.64C73.2 33.04 73.29 33.2 73.38 32.64Z" />
	<path id="Layer" class="shp0" d="M71.88 24.08C71.8 24.01 71.74 23.97 71.82 24.31L71.86 24.41L72.2 24.86C72.16 24.66 72.17 24.56 72.32 24.67L72.27 24.51C72.2 24.55 72.21 24.93 71.88 24.08Z" />
	<path id="Layer" class="shp0" d="M71.5 23.37L71.83 23.75C71.8 23.55 71.75 23.35 71.68 23.16L71.56 22.95C71.68 23.33 71.62 23.41 71.5 23.37Z" />
	<path id="Layer" class="shp0" d="M72.26 26.17L72.63 26.66C72.63 26.37 72.58 26.08 72.49 25.8C72.38 25.55 72.25 25.29 72.11 25.01C72.2 25.39 72.25 25.78 72.26 26.17Z" />
	<path id="Layer" class="shp0" d="M72.63 26.66L72.26 26.17C72.4 26.47 72.5 26.79 72.58 27.11L72.69 27.37C72.66 27.34 72.64 27.3 72.62 27.27C72.75 28 72.85 28.76 72.9 29.42C72.94 29.72 72.99 30.01 73.06 30.3C73.1 30.52 73.19 30.73 73.33 30.91C73.2 30.56 73.11 30.2 73.03 29.83C72.99 29.61 72.98 29.38 73 29.16C73.05 28.59 72.96 28.02 72.74 27.49C72.58 26.63 73.12 27.97 72.87 26.98L72.75 26.82C72.71 26.77 72.67 26.73 72.62 26.68L72.63 26.66Z" />
	<path id="Layer" class="shp0" d="M67.4 16.85C67.62 17.32 67.72 17.66 67.57 17.61L67.89 17.69C67.77 17.48 67.68 17.31 67.58 17.14C67.47 16.97 67.46 16.93 67.4 16.85Z" />
	<path id="Layer" class="shp0" d="M66.47 15.13L65.74 14.56C66.02 14.8 66.27 15.08 66.49 15.39C66.78 15.8 67.06 16.23 67.3 16.68L67.42 16.78C67.18 16.19 66.86 15.64 66.47 15.13Z" />
	<path id="Layer" class="shp0" d="M67.42 16.78L67.3 16.68L67.4 16.85C67.46 16.93 67.53 17.03 67.59 17.14L67.42 16.78Z" />
	<path id="Layer" class="shp0" d="M68.95 19.49C69 19.61 69.05 19.74 69.09 19.86C69.07 19.73 69.02 19.61 68.95 19.49Z" />
	<path id="Layer" class="shp0" d="M68.51 19C68.56 19.03 68.6 19.07 68.65 19.11C68.47 18.66 68.26 18.23 68.01 17.82C67.98 17.77 67.93 17.73 67.89 17.69C68.14 18.42 68.46 19.13 68.84 19.8C68.85 19.75 68.84 19.7 68.83 19.65L68.51 19Z" />
	<path id="Layer" class="shp0" d="M68.95 19.49C68.8 19.14 68.64 18.8 68.46 18.47C68.54 18.69 68.63 18.93 68.76 19.23C68.83 19.31 68.9 19.4 68.95 19.49Z" />
	<path id="Layer" class="shp0" d="M68.96 19.92L68.88 19.9C69.26 20.77 69.57 21.48 69.24 21.3C69.57 21.7 69.61 21.6 69.5 21.25C69.41 21.03 69.33 20.82 69.26 20.62L68.96 19.92Z" />
	<path id="Layer" class="shp0" d="M68.01 17.82C68.26 18.23 68.47 18.66 68.65 19.11C68.68 19.14 68.72 19.18 68.76 19.22C68.63 18.93 68.54 18.68 68.46 18.47C68.34 18.23 68.19 18.02 68.01 17.82Z" />
	<path id="Layer" class="shp0" d="M68.83 19.65C68.84 19.7 68.85 19.75 68.84 19.8L68.88 19.9L68.96 19.92C68.92 19.83 68.87 19.74 68.83 19.65Z" />
	<path id="Layer" class="shp0" d="M69.51 21.24C69.45 21.08 69.37 20.87 69.26 20.62C69.33 20.81 69.42 21.03 69.51 21.24Z" />
	<path id="Layer" class="shp2" d="M72.11 25.01C72.04 24.81 71.97 24.61 71.88 24.42L71.81 24.32C71.91 24.59 72.01 24.81 72.11 25.01Z" />
	<path id="Layer" class="shp2" d="M71.79 23.85L71.88 24.08C71.97 24.18 72.09 24.33 71.91 23.84L71.83 23.75C71.84 23.84 71.83 23.89 71.79 23.85Z" />
	<path id="Layer" class="shp2" d="M71.27 23.12C71.31 23.18 71.34 23.25 71.37 23.31C71.41 23.34 71.46 23.36 71.5 23.37L71.27 23.12Z" />
	<path id="Layer" class="shp2" d="M72.27 26.19L72.27 26.16C72.26 25.77 72.21 25.38 72.12 25C72.02 24.81 71.92 24.59 71.82 24.31L71.89 24.41L71.85 24.31C71.75 23.96 71.81 24.01 71.9 24.08L71.81 23.85C71.86 23.89 71.86 23.83 71.84 23.74L71.51 23.37C71.47 23.35 71.42 23.33 71.39 23.31C71.7 24.02 71.94 24.77 72.08 25.54C72.14 26.15 72.33 26.75 72.63 27.28L72.6 27.12C72.45 26.83 72.33 26.51 72.27 26.19Z" />
	<path id="Layer" class="shp2" d="M72.59 27.13L72.62 27.29C72.64 27.32 72.67 27.36 72.7 27.39L72.59 27.13Z" />
	<path id="Layer" class="shp2" d="M71.26 22.08L71.31 22.25L71.44 22.73C71.54 23.12 71.7 23.62 71.82 24.14L72.14 25.56L72.25 26.2L72.14 25.56L71.83 24.14C71.71 23.62 71.55 23.12 71.44 22.74L71.32 22.26L71.26 22.08Z" />
	<path id="Layer" class="shp0" d="M73.31 40.07C73.24 39.72 73.14 40.15 73.02 40.63C72.91 41.1 72.77 41.62 72.73 41.48C72.7 41.63 72.68 41.77 72.67 41.92C73 41.35 73.22 40.72 73.31 40.07Z" />
	<path id="Layer" class="shp0" d="M73.76 36.69C73.6 37.55 73.4 38.11 73.26 38.67C73.28 39.13 73.31 39.54 73.33 39.98C73.48 39.16 73.58 38.15 73.76 36.69Z" />
	<path id="Layer" class="shp0" d="M73.31 40.07L73.34 39.98C73.32 39.53 73.3 39.11 73.26 38.68C73.16 39.1 73.01 39.48 72.88 39.95L72.88 39.98C72.98 39.94 72.98 40.13 72.94 40.44C72.89 40.76 72.79 41.13 72.73 41.5C72.77 41.64 72.9 41.1 73.02 40.64C73.14 40.19 73.24 39.72 73.31 40.07Z" />
	<path id="Layer" class="shp0" d="M72.91 43.65C72.81 44.04 72.67 44.41 72.54 44.79L72.9 44.05L73.22 43.28C72.4 45.31 73.52 41.19 73.08 41.95C73.14 42.48 72.34 44.64 72.91 43.65Z" />
	<path id="Layer" class="shp1" d="M72.71 32.25C72.72 32.44 72.72 32.63 72.73 32.8L72.73 32.04L72.72 31.97C72.73 32.08 72.72 32.17 72.71 32.25Z" />
	<path id="Layer" class="shp0" d="M71.06 48.72L70.93 49L71.07 48.73L71.06 48.72Z" />
	<path id="Layer" class="shp0" d="M71.41 48.06C71.28 48.29 71.16 48.51 71.06 48.72L71.41 48.06Z" />
	<path id="Layer" class="shp0" d="M70.93 49L70.25 50.17C70.54 49.85 70.37 50.65 70.37 50.77C70.46 50.15 70.65 49.55 70.93 49Z" />
	<path id="Layer" class="shp0" d="M8.32 48.62C8.24 48.52 8.19 48.47 8.17 48.46C8.26 48.79 8.36 49.12 8.44 49.45C8.4 49.23 8.36 48.96 8.32 48.62Z" />
	<path id="Layer" class="shp0" d="M8.44 50.67L8.2 50.21L8.6 51.03C8.73 50.44 8.64 50.4 8.44 49.45C8.36 49.12 8.26 48.79 8.17 48.46C8.07 48.47 8.2 49.03 8.33 49.59C8.46 50.15 8.61 50.69 8.44 50.67Z" />
	<path id="Layer" class="shp1" d="M13.81 57.58L13.88 57.7L13.92 57.74L13.81 57.58Z" />
	<path id="Layer" class="shp0" d="M8.14 50.08L8.2 50.2L8.14 50.08Z" />
	<path id="Layer" class="shp0" d="M5.44 35.45L5.43 35.52L5.6 35.56L5.44 35.45Z" />
	<path id="Layer" class="shp0" d="M44.47 68.26C43.97 68.32 43.51 68.32 43.09 68.35C42.87 68.37 42.67 68.38 42.47 68.4C42.26 68.41 42.07 68.41 41.88 68.42C41.49 68.43 41.12 68.45 40.75 68.46L39.61 68.46C39.55 68.52 39.5 68.59 39.47 68.67C41.17 68.68 42.87 68.56 44.55 68.3L44.47 68.26Z" />
	<path id="Layer" class="shp0" d="M63.55 61.03C63.23 61.19 62.94 61.4 62.68 61.64C62.43 61.88 62.15 62.09 61.86 62.28C61.31 62.85 60.67 63.37 60.08 63.92C59.48 64.48 58.77 64.96 58.05 65.43C57.33 65.9 56.59 66.38 55.83 66.83C55.07 67.29 54.25 67.68 53.44 68.05C50.13 69.57 46.61 70.59 42.99 71.08C43.51 71.23 44.03 71.35 44.55 71.44C44.58 71.45 44.6 71.45 44.62 71.45C44.6 71.44 44.58 71.42 44.57 71.39C44.56 71.37 44.56 71.34 44.56 71.32C44.56 71.29 44.56 71.27 44.57 71.24C44.58 71.22 44.6 71.2 44.62 71.18C48.98 70.23 53.15 68.6 56.99 66.35C60.75 64.14 64 61.17 66.52 57.63C67.03 57.15 67.25 56.67 67.82 56.21C67.71 56.23 67.87 55.91 68.12 55.48C68.37 55.04 68.68 54.44 68.94 53.95C69.42 52.94 69.66 52.3 68.56 53.76C68.32 54.07 68.09 54.36 67.85 54.64C67.66 54.98 67.49 55.35 67.36 55.72C67.39 55.61 67.6 55.09 67.5 55.03C66.66 55.85 65.77 56.62 64.83 57.33C63.86 58.07 62.95 58.87 62.1 59.74L61.5 60.29L60.87 60.84L60.21 61.41L59.53 61.95C61.26 61.05 63.01 60.29 64.84 58.56C66.32 57.22 65.93 57.85 65.22 58.84C64.88 59.35 64.39 59.88 64.05 60.33C63.7 60.79 63.43 61.02 63.55 61.03Z" />
	<path id="Layer" class="shp0" d="M67.36 55.7C67.49 55.33 67.66 54.96 67.85 54.61C67.74 54.75 67.62 54.88 67.5 55C67.58 55.06 67.36 55.58 67.36 55.7Z" />
	<path id="Layer" class="shp0" d="M61.86 62.29C62.15 62.1 62.42 61.89 62.68 61.66C62.94 61.41 63.23 61.2 63.54 61.04C63.43 61.04 63.67 60.74 64.02 60.3C64.36 59.87 64.85 59.33 65.2 58.81C65.9 57.82 66.3 57.19 64.81 58.53C62.98 60.26 61.24 61 59.5 61.92C57.81 63.3 55.96 64.47 53.99 65.41L54.07 65.3C52.62 66.16 51.05 66.81 49.41 67.25L48.87 67.41L48.31 67.55L47.21 67.85C46.47 68.03 45.74 68.28 44.92 68.51L44.55 68.32C42.87 68.57 41.17 68.7 39.47 68.68C39.3 69.09 39.73 69.56 40.43 70.01C40.81 70.25 41.22 70.45 41.64 70.62C42.07 70.8 42.51 70.96 42.96 71.09C46.58 70.6 50.11 69.58 53.42 68.06C54.24 67.69 55.03 67.26 55.8 66.84C56.58 66.42 57.32 65.94 58.02 65.44C58.72 64.94 59.39 64.45 60.05 63.93C60.71 63.41 61.31 62.85 61.86 62.29Z" />
	<path id="Layer" class="shp2" d="M8.3 22.41L8.26 22.54C8.52 22 8.78 21.61 8.59 22.28C8.93 21.34 8.74 21.71 8.83 21.11L8.65 21.55L8.3 22.41Z" />
	<path id="Layer" class="shp2" d="M8.83 21.11L8.65 21.57L8.83 21.11Z" />
	<path id="Layer" class="shp0" d="M24.01 4.45C24.45 4.28 24.9 4.18 25.36 4.13C26.57 3.4 26.47 3.33 26.79 3C26.34 3.12 25.9 3.22 25.45 3.37C25.79 3.33 26.13 3.31 26.46 3.28L24.69 3.86C24.42 4 24.19 4.2 24.01 4.45Z" />
	<path id="Layer" class="shp0" d="M22.79 4.63C22.68 4.77 22.77 4.8 22.97 4.76L23.08 4.48C22.98 4.53 22.89 4.58 22.79 4.63Z" />
	<path id="Layer" class="shp0" d="M28.21 2.21C28.33 2.03 28.55 1.81 28 1.87L27.72 2.34L27.88 2.25L28.21 2.21Z" />
	<path id="Layer" class="shp0" d="M33.01 1.22C32.94 1.17 32.71 1.15 32.21 1.15C31.76 1.29 31.35 1.52 31 1.82L31.42 1.7C30.43 2.04 31.05 2 31.67 1.97C32.29 1.65 33.02 1.42 33.04 1.27C32.89 1.27 32.72 1.27 32.51 1.28L33.01 1.22Z" />
	<path id="Layer" class="shp0" d="M30.8 1.99C30.21 2.36 29.57 2.67 28.91 2.9C28.2 2.92 28.09 2.69 29.3 2.14C29.09 2.2 28.93 2.24 28.78 2.27C28.73 2.46 27.88 2.89 27.24 3.31C27.83 3.21 28.4 3.07 28.97 2.9C29.55 2.76 30.15 2.64 30.74 2.57C30.75 2.55 30.76 2.53 30.78 2.52C30.01 2.64 30.23 2.5 30.53 2.31C30.83 2.12 31.22 1.95 30.8 1.99Z" />
	<path id="Layer" class="shp0" d="M31.11 2.26C31.19 2.21 31.27 2.17 31.36 2.12C31.23 2.15 31.1 2.17 30.99 2.19L31.11 2.26Z" />
	<path id="Layer" class="shp0" d="M32.51 1.28C32.72 1.27 32.89 1.27 33.04 1.27C33.04 1.27 33.03 1.24 33.01 1.22L32.51 1.28Z" />
	<path id="Layer" class="shp0" d="M31.42 1.7L31 1.82C30.93 1.88 30.88 1.93 30.8 1.99C31.23 1.95 30.83 2.14 30.53 2.31C30.23 2.48 30.01 2.63 30.78 2.52C30.87 2.42 30.98 2.33 31.11 2.26L30.99 2.19C31.1 2.17 31.23 2.15 31.36 2.12L31.67 1.97C31.05 2 30.44 2.04 31.42 1.7Z" />
	<path id="Layer" class="shp0" d="M28.78 2.28C28.11 2.45 28.12 2.36 28.21 2.21L27.88 2.26L27.71 2.35L27.42 2.84C27.21 2.89 27 2.95 26.78 3.01C26.48 3.34 26.57 3.4 25.36 4.13C25.39 4.13 25.41 4.14 25.43 4.15C25.95 3.83 26.5 3.55 27.03 3.25C27.01 3.32 27.08 3.33 27.23 3.3C27.88 2.89 28.72 2.46 28.78 2.28Z" />
	<path id="Layer" class="shp0" d="M24.01 4.44C24.19 4.2 24.42 4 24.69 3.86C24.13 4.02 23.6 4.23 23.08 4.48L22.97 4.76C23.32 4.68 23.67 4.57 24.01 4.44Z" />
	<path id="Layer" class="shp0" d="M7.11 25.52L7 26.05C7.12 25.72 7.27 25.39 7.43 25.08L7.8 23.85C7.52 24.39 7.29 24.95 7.11 25.52Z" />
	<path id="Layer" class="shp0" d="M1.62 32.57L1.61 33.13L1.72 32.69C1.67 32.7 1.64 32.65 1.62 32.57Z" />
	<path id="Layer" class="shp0" d="M6.69 43.76L6.42 43.04L6.42 43.45L6.49 43.76L6.69 43.76Z" />
	<path id="Layer" class="shp0" d="M6.86 44.46C6.85 44.3 6.81 44.14 6.76 43.99L6.86 44.46Z" />
	<path id="Layer" class="shp0" d="M5.74 38.34C5.75 38.33 5.76 38.32 5.78 38.31C5.79 38.31 5.8 38.3 5.82 38.3C5.83 38.3 5.84 38.3 5.86 38.3C5.87 38.31 5.88 38.32 5.89 38.33C5.99 38.8 5.99 39.29 5.89 39.76C5.9 39.72 5.91 39.68 5.94 39.65C5.97 39.62 6.01 39.59 6.05 39.58C6.04 38.91 5.93 38.25 5.73 37.61L5.74 38.34Z" />
	<path id="Layer" fill-rule="evenodd" class="shp0" d="M24.46 4.67C24.23 4.84 23.97 4.96 23.69 5.03C23.22 5.17 22.79 5.39 22.4 5.68C22.61 5.63 23.01 5.47 23.48 5.3C23.96 5.13 24.46 4.91 24.91 4.77C25 4.67 24.85 4.68 24.57 4.71C27.09 3.75 23.74 5.52 25.76 4.88L24.99 5.23L24.97 5.22C24.5 5.36 24.08 5.58 23.7 5.87C23.05 6.21 22.5 6.59 21.97 6.92C21.45 7.25 21 7.62 20.58 7.95C20.16 8.28 19.78 8.64 19.42 8.95L18.39 9.94L17.41 10.96C17.06 11.32 16.74 11.69 16.38 12.04C16.01 12.4 15.66 12.84 15.24 13.27L13.93 14.72C14.26 14.23 14.6 13.76 14.94 13.26C15.28 12.77 15.67 12.3 16.1 11.81C17.1 10.64 18.22 9.57 19.44 8.63C19.8 8.26 20.22 7.95 20.69 7.73C21 7.57 21.3 7.38 21.59 7.17L21.49 7.22C19.42 8.22 22.76 5.8 20.19 7.22C20.49 7.14 20.64 7.1 20.56 7.23C20.11 7.45 19.6 7.77 19.12 8.02C18.63 8.27 18.24 8.53 18.02 8.61C18.25 8.39 18.49 8.18 18.75 8C18.94 7.89 19.13 7.78 19.33 7.69C19.64 7.59 19.91 7.4 20.11 7.15C19.53 7.45 19.08 7.64 18.73 7.79C18.47 7.9 18.2 8 17.92 8.06C17.57 8.11 17.21 8.11 16.85 8.07C16.24 8.68 15.81 9.09 15.89 9.17C14.85 9.99 14.58 10.15 14.75 9.71C14.68 9.7 14.75 9.62 14.88 9.5C14.24 10.06 13.51 10.84 12.92 11.4C12.33 11.96 11.89 12.36 11.8 12.1C11.35 12.63 10.97 13.16 10.58 13.64C10.18 14.12 9.85 14.61 9.5 15.06L9.59 14.5C11.7 11.9 13.51 10.37 16.26 7.93C16.33 8.39 18.12 6.88 19.43 6.05C19.3 6.14 19.22 6.21 19.29 6.22C19.08 6.62 19.34 6.48 20.41 5.9C20.35 5.83 20.76 5.48 21.44 5.05C21.68 5.09 21.87 5.16 22.05 5.17C21.68 5.34 21.3 5.49 20.93 5.66C21.29 5.56 21.66 5.5 22.01 5.41C20.59 6.14 19.32 6.66 18.27 7.45C18.1 7.78 18.67 7.49 19.35 7.16C20.03 6.83 20.83 6.45 21.04 6.5C21.54 6.06 22.09 5.69 22.62 5.28C22.55 5.48 23.47 5.09 24.46 4.67ZM15.05 9.34C15.34 9.08 15.66 8.85 16 8.66C15.64 8.83 15.32 9.06 15.05 9.34Z" />
	<path id="Layer" class="shp0" d="M13.82 58.24C13.94 58.5 13.61 58.41 13.83 58.82C14.18 59.06 14.56 59.23 14.96 59.34C14.81 59.2 14.68 59.09 14.6 58.99L14.61 59.09L13.93 58.35L13.84 58.25L13.93 58.36L14.33 58.77C14.34 58.77 14.34 58.76 14.35 58.76C14.36 58.75 14.36 58.74 14.36 58.73C14.19 58.56 14.07 58.33 14.01 58.09C13.89 57.75 13.7 57.42 13.46 57.14C13.14 56.73 12.8 56.33 12.52 55.89L12.67 56.29C13.22 57.02 13.23 57.17 13.23 57.33C13.23 57.49 13.2 57.59 13.82 58.24Z" />
	<path id="Layer" class="shp0" d="M5.44 35.52L5.35 35.5L5.43 35.62L5.44 35.52Z" />
	<path id="Layer" class="shp0" d="M10.28 53.37L10.15 52.88C10.03 52.69 9.89 52.51 9.76 52.28C9.7 52.25 9.65 52.22 9.59 52.2C9.78 52.61 10.01 53 10.28 53.37Z" />
	<path id="Layer" class="shp0" d="M2.3 28.39L2.17 29.15C2.38 28.47 2.49 28.67 2.61 28.7C2.73 28.72 2.72 28.68 2.8 28.48C2.88 28.28 2.98 27.9 3.12 27.22C3.07 26.75 2.98 26.28 2.95 25.83L3.55 24.84C3.47 25.29 3.36 25.73 3.21 26.17L3.37 25.72C3.5 25.3 3.82 24.24 3.71 24.08C4.44 22.15 4.01 24.26 4.55 23.07C4.65 22.77 4.78 22.49 4.92 22.21L4.79 21.75C5.12 21.29 5.41 20.8 5.65 20.29C5.83 19.97 5.99 19.64 6.18 19.34C6.34 19.08 6.53 18.83 6.74 18.59L6.65 18.41C7.92 16.82 6.42 18.98 6.39 19.69C6.87 18.87 7.32 18.09 7.83 17.37C7.57 17.56 7.42 17.48 7.17 17.61C6.92 17.73 6.6 18.07 6.02 19.11C6.22 18.74 6.4 18.36 6.56 17.97L5.83 18.75C5.77 19.18 5.73 19.62 5.72 20.03C5.18 21.17 5.05 21.27 4.95 21.23C4.86 21.19 4.79 20.98 4.48 21.56L4.74 20.9C4.14 22.49 3.9 22.29 3.49 23.07C3.85 23.43 3.05 24.57 3.38 24.63L2.85 25.68L2.92 25.41C2.59 25.8 2.38 26.27 2.31 26.78L1.9 28.72C1.82 29.29 1.74 29.84 1.7 30.39C2.02 29.77 2.22 29.09 2.3 28.39Z" />
	<path id="Layer" class="shp0" d="M1.65 31.4C1.63 31.61 1.63 31.81 1.63 32.02C1.65 31.82 1.65 31.61 1.65 31.4Z" />
	<path id="Layer" class="shp0" d="M5.42 21.78C5.33 21.58 5.16 21.8 4.95 22.21L4.58 23.07L4.14 24.33C4.38 24.13 4.57 24.19 4.82 23.88C5.01 23.63 5.16 23.35 5.28 23.06C5.47 22.66 5.71 22.07 6.03 21.25L6.01 20.47L6.31 19.88L5.75 20.29C5.63 20.79 5.51 21.28 5.42 21.78Z" />
	<path id="Layer" class="shp0" d="M13.92 58.35L14.59 59.08L14.58 58.98C14.49 58.89 14.41 58.79 14.35 58.72C14.34 58.73 14.34 58.74 14.33 58.74C14.33 58.75 14.32 58.75 14.31 58.76L13.92 58.35Z" />
	<path id="Layer" class="shp0" d="M13.82 58.24L13.92 58.35L13.82 58.24L13.82 58.24Z" />
	<path id="Layer" class="shp0" d="M15.05 9.34C15.34 9.08 15.66 8.85 16 8.66C15.64 8.83 15.32 9.06 15.05 9.34Z" />
	<path id="Layer" class="shp0" d="M22.03 5.14C21.66 5.31 21.29 5.46 20.92 5.63C21.28 5.53 21.64 5.47 21.99 5.38C20.57 6.11 19.3 6.62 18.25 7.42C18.08 7.75 18.65 7.46 19.33 7.13C20.02 6.8 20.81 6.42 21.03 6.47C21.53 6.03 22.08 5.66 22.61 5.25C22.55 5.48 23.47 5.09 24.46 4.67L24.52 4.63C23.97 4.82 23.41 4.98 22.84 5.1C22.58 5.16 22.3 5.18 22.03 5.14Z" />
	<path id="Layer" class="shp0" d="M5.66 42.62L5.54 43.36C5.75 43.84 5.82 43.79 5.78 43.56C5.75 43.33 5.69 42.91 5.66 42.62Z" />
	<path id="Layer" fill-rule="evenodd" class="shp0" d="M13.92 14.74L12.88 15.94C12.49 16.42 12 16.82 11.44 17.1C10.99 17.4 10.44 17.83 9.65 19.22C9.39 19.82 9.1 20.43 8.83 21.1C8.87 20.87 8.93 20.64 9 20.42C8.75 20.76 8.54 21.11 8.31 21.46C8.08 21.81 7.84 22.16 7.64 22.53L8.23 22.56L7.75 23.61C7.83 23.51 8.06 22.99 8.26 22.55L7.8 23.85C7.52 24.39 7.29 24.95 7.11 25.52L7 26.05C6.84 26.45 6.67 26.83 6.52 27.14C6.42 27.4 6.27 27.63 6.07 27.82L6.21 28.17C6.03 28.6 5.88 29.05 5.74 29.49L6.05 29.44C5.57 31.3 5.47 33.04 5.24 35.47L5.35 35.5L5.44 35.62C5.4 36.06 5.41 36.49 5.48 36.92C5.55 37.16 5.63 37.39 5.73 37.61L5.75 38.34C5.61 38.7 5.56 39.09 5.61 39.47C5.62 39.75 5.61 40.06 5.62 40.37C5.63 40.68 5.64 40.99 5.63 41.27C5.79 41.49 6.09 42.2 5.93 41.18L6.05 41.81L6.16 42.28C6.2 42.49 6.23 42.69 6.24 42.9C6.25 43.17 6.18 43.23 6.1 43.26C5.95 43.33 5.77 43.33 6.28 44.87L6.29 44.17C6.38 44.51 6.46 44.85 6.57 45.18C6.46 44.6 6.41 44.02 6.44 43.43L6.5 43.75L6.7 43.74L6.77 43.97L6.87 44.44C6.91 44.7 6.88 44.9 6.95 45.26C6.99 45.49 7.05 45.72 7.11 45.94C7.21 46.31 7.35 46.67 7.5 47.01C7.29 46.76 7.13 46.72 7.14 46.98C7.15 47.19 7.19 47.39 7.25 47.59C7.36 47.97 7.49 48.33 7.66 48.68C7.63 48.41 7.58 48.13 7.57 47.85C7.92 48.78 7.91 48.95 7.87 49.08C7.83 49.21 7.76 49.31 8.14 50.07C8.18 50.27 8.02 50.22 7.99 50.38C7.98 50.54 8.01 50.7 8.08 50.85C8.22 51.24 8.4 51.62 8.62 51.97C8.82 52.2 8.97 52.36 9.08 52.48L9.12 52.64C9.32 53.14 9.54 53.65 9.76 54.15C9.55 53.6 9.32 53.07 9.13 52.51C9.71 53.05 9.23 52.09 9.6 52.18C9.79 52.59 10.02 52.98 10.29 53.35L10.16 52.86C11.39 54.76 11.47 55.77 13.34 57.8C13.1 57.3 12.87 56.79 12.66 56.26C13.21 56.99 13.22 57.14 13.22 57.3C13.22 57.46 13.21 57.59 13.82 58.24C13.95 58.5 13.62 58.41 13.84 58.82C13.58 58.65 13.31 58.46 13.04 58.26C12.82 57.96 12.61 57.65 12.42 57.35C12.09 56.84 11.79 56.31 11.52 55.77L11.88 56.14C11.66 55.81 11.35 55.56 11.02 55.13C10.54 54.56 10.13 53.93 9.81 53.25C9.71 53.41 9.97 53.8 10.22 54.19C10.48 54.57 10.78 54.93 10.68 55.1L11.09 55.44C11.85 56.41 11.51 56.38 11.42 56.26C11.63 56.62 11.89 56.93 12.19 57.21C12.31 57.44 12.36 57.59 12.19 57.48C12.31 57.61 12.43 57.75 12.54 57.89L11.53 57.04C11.62 57.03 11.67 56.98 11.52 56.7L11.13 56.27C11.32 56.64 11.25 56.7 11.18 56.73L10.9 56.51C10.52 56.03 10.25 55.64 10.01 55.29C9.77 54.95 9.56 54.66 9.35 54.33L8.69 53.22C8.44 52.79 8.16 52.25 7.81 51.56C7.74 51.72 7.53 51.58 7.23 51.23C6.82 50.74 6.45 50.22 6.14 49.67C5.71 49.01 5.32 48.23 4.93 47.46C4.74 47.07 4.58 46.69 4.41 46.32C4.24 45.95 4.09 45.6 3.96 45.28C3.87 44.72 3.75 44.17 3.69 43.6C3.1 42.09 2.63 40.54 2.27 38.95C1.86 37.04 1.64 35.09 1.6 33.13L1.72 32.69C1.66 32.68 1.62 32.67 1.61 32.57L1.61 32.02C1.63 31.82 1.64 31.61 1.63 31.4L1.7 30.36C1.9 29.97 2.05 29.56 2.15 29.14L2.15 29.15C2.36 28.47 2.47 28.67 2.59 28.7C2.71 28.72 2.71 28.68 2.78 28.48C2.86 28.28 2.96 27.9 3.11 27.22C3.05 26.75 2.96 26.28 2.93 25.82L3.53 24.84C3.45 25.29 3.34 25.73 3.19 26.17L3.35 25.72C3.42 26.13 3.57 25.89 3.76 25.37L3.88 25.49C3.24 26.46 2.91 28.72 2.53 29.31L2.77 29.76C2.69 30.09 2.63 30.43 2.59 30.77C2.29 32.17 2.25 29.82 1.94 32.06C2.12 32.2 1.99 33.41 1.97 33.89C2.18 34.35 2.25 33.99 2.32 33.31C2.4 32.64 2.45 31.63 2.59 30.77C2.65 30.55 2.69 30.24 2.77 29.77C2.9 29.28 3.04 29.01 3.17 29.2C3.17 28.65 3.16 28.09 3.19 27.54L3.82 26.86C3.49 26.39 4.66 23.59 3.92 25.01C3.97 24.8 4.03 24.57 4.13 24.34C4.38 24.14 4.57 24.2 4.82 23.89C5.01 23.64 5.16 23.36 5.27 23.07C5.47 22.67 5.71 22.08 6.02 21.25L6.01 20.47L6.31 19.89L6.44 19.8C6.42 19.76 6.42 19.72 6.42 19.68C6.9 18.86 7.35 18.08 7.85 17.36C8.08 17.18 8.27 16.97 8.42 16.73C8.68 16.4 9.01 15.91 9.46 15.2L9.5 15.07C9.85 14.61 10.19 14.13 10.58 13.65C10.97 13.16 11.35 12.63 11.81 12.11C11.9 12.36 12.35 11.99 12.92 11.4C13.5 10.82 14.24 10.06 14.88 9.51C14.75 9.63 14.68 9.72 14.75 9.72C14.58 10.16 14.85 10 15.89 9.17C15.81 9.1 16.22 8.68 16.85 8.07C17.21 8.12 17.57 8.12 17.92 8.07C18.2 8 18.47 7.91 18.73 7.79C19.08 7.65 19.53 7.45 20.12 7.15C19.91 7.4 19.64 7.59 19.33 7.7C19.14 7.79 18.94 7.89 18.76 8C18.5 8.19 18.25 8.39 18.02 8.62C18.24 8.54 18.64 8.29 19.12 8.03C19.59 7.77 20.11 7.45 20.56 7.23C20.64 7.11 20.49 7.14 20.19 7.23C22.77 5.8 19.42 8.22 21.5 7.22L20.73 7.71L20.69 7.73C20.23 7.96 19.8 8.26 19.44 8.63C18.22 9.58 17.1 10.64 16.1 11.81C15.67 12.3 15.32 12.8 14.94 13.27C14.57 13.73 14.25 14.25 13.92 14.74ZM11.42 56.26C11.41 56.26 11.41 56.25 11.4 56.24C11.41 56.25 11.41 56.26 11.42 56.26ZM2.15 29.14L2.28 28.39C2.25 28.64 2.21 28.89 2.15 29.14ZM9.84 54.04C9.97 54.31 10.17 54.61 10.35 54.91C10.53 55.51 10.83 56.07 11.23 56.56C11 55.98 10.7 55.43 10.35 54.91C10.2 54.61 10.03 54.32 9.84 54.04ZM6.91 48.97C7.1 49.37 7.26 49.77 7.4 50.19C7.51 50.52 7.52 50.71 7.35 50.58L7.82 50.94L8.08 51.55C8.16 51.71 8.24 51.89 8.3 52.06C8.11 51.51 7.95 50.96 7.79 50.41C7.72 50.39 7.7 50.46 7.7 50.54C7.25 49.49 6.92 48.39 6.73 47.26C6.75 47.63 6.81 47.99 6.9 48.35C6.99 48.8 7.09 49.18 6.91 48.97ZM8.3 52.06C8.33 52.13 8.36 52.21 8.38 52.28C8.36 52.21 8.33 52.13 8.3 52.06ZM6.15 48.08C6.11 48.11 6.09 48.16 6.13 48.32C6.2 48.63 6.32 48.94 6.47 49.22C6.16 48.46 6.25 48.39 6.35 48.4C6.45 48.41 6.61 48.52 6.53 48.11L6.3 47.63C6.39 48.1 6.2 48.06 6.15 48.08ZM5.71 42.34C5.63 42.25 5.64 42.4 5.66 42.6L5.71 42.33L5.71 42.34ZM5.66 42.61C5.66 42.62 5.66 42.62 5.66 42.62L5.66 42.61C5.66 42.61 5.66 42.6 5.66 42.6L5.66 42.61ZM5.66 42.62L5.55 43.35C5.76 43.82 5.81 43.76 5.79 43.54C5.77 43.32 5.69 42.9 5.66 42.62ZM5.43 43.54C5.43 43.68 5.43 43.82 5.42 43.96C5.49 44.45 5.53 44.96 5.6 45.45C5.54 44.81 5.48 44.17 5.44 43.53L5.43 43.54ZM4.8 41.67C4.66 41.64 4.66 41.83 4.7 42.19C4.78 42.61 4.84 43.04 4.86 43.47C4.85 42.85 4.79 42.26 4.8 41.66L4.8 41.67ZM5.28 38.73C5.63 39.8 5.51 38.54 5.46 37.43C5.22 37.05 5.34 38.42 5.28 38.74L5.28 38.73ZM5.76 29.59C5.65 29.2 5.4 30.47 5.31 30.72C5.34 31.23 5.41 31.2 5.48 30.91C5.53 30.76 5.54 30.56 5.6 30.33L5.76 29.58L5.76 29.59Z" />
	<path id="Layer" class="shp0" d="M11.49 55.73C11.34 55.58 11.19 55.43 11.05 55.28C12.32 56.83 10.94 55.82 12.15 57.1C11.89 56.66 11.67 56.2 11.49 55.73Z" />
	<path id="Layer" class="shp0" d="M11.23 56.56C10.99 55.98 10.7 55.43 10.35 54.91C10.53 55.51 10.83 56.07 11.23 56.56Z" />
	<path id="Layer" class="shp0" d="M9.84 54.04C9.97 54.31 10.15 54.6 10.35 54.91C10.2 54.61 10.03 54.32 9.84 54.04Z" />
	<path id="Layer" class="shp0" d="M5.66 42.62L5.71 42.34C5.63 42.25 5.64 42.4 5.66 42.62Z" />
	<path id="Layer" class="shp0" d="M11.53 56.68L11.13 56.24C11.32 56.62 11.25 56.68 11.18 56.71C11.3 56.8 11.42 56.9 11.56 57.01C11.62 57.01 11.68 56.96 11.53 56.68Z" />
	<path id="Layer" class="shp0" d="M12.41 57.35C12.33 57.3 12.26 57.24 12.19 57.18C12.31 57.42 12.36 57.56 12.19 57.45C12.31 57.58 12.42 57.72 12.54 57.86C12.65 58 12.87 58.13 13.03 58.27C12.81 57.96 12.6 57.65 12.41 57.35Z" />
	<path id="Layer" class="shp0" d="M12.15 57.1L12.37 57.3L12.4 57.31C12.07 56.8 11.77 56.28 11.5 55.74C11.68 56.21 11.9 56.66 12.15 57.1Z" />
	<path id="Layer" class="shp0" d="M1.96 32.07C2.14 32.21 2.01 33.43 1.99 33.91C2.2 34.36 2.27 34 2.34 33.33C2.41 32.65 2.46 31.64 2.61 30.79C2.31 32.19 2.27 29.83 1.96 32.07Z" />
	<path id="Layer" class="shp0" d="M3.8 25.39L3.88 25.49C3.24 26.46 2.91 28.72 2.53 29.31L2.77 29.76C2.9 29.27 3.04 29 3.17 29.19C3.17 28.64 3.15 28.08 3.19 27.53L3.82 26.85C3.48 26.38 4.65 23.58 3.92 25L3.8 25.39Z" />
	<path id="Layer" class="shp0" d="M2.61 30.79C2.66 30.56 2.71 30.25 2.79 29.78C2.71 30.11 2.65 30.45 2.61 30.79Z" />
	<path id="Layer" class="shp0" d="M9.11 52.65C9.31 53.15 9.54 53.65 9.75 54.16C9.54 53.6 9.31 53.07 9.12 52.52L9.08 52.48L9.11 52.65Z" />
	<path id="Layer" class="shp0" d="M7.8 50.94L8.06 51.54C8.18 51.78 8.28 52.02 8.36 52.28C8.13 51.66 7.95 51.03 7.77 50.4C7.7 50.39 7.68 50.46 7.68 50.54L7.89 51L7.8 50.94Z" />
	<path id="Layer" class="shp0" d="M5.46 37.43C5.22 37.04 5.33 38.44 5.28 38.72C5.63 39.81 5.51 38.54 5.46 37.43Z" />
	<path id="Layer" class="shp0" d="M6.2 28.16C6.02 28.6 5.88 29.05 5.73 29.49L6.04 29.44C6.12 29.12 6.22 28.8 6.34 28.49L6.2 28.16Z" />
	<path id="Layer" class="shp0" d="M20.67 7.73C20.98 7.56 21.28 7.38 21.57 7.17L21.47 7.22L20.7 7.7L20.67 7.73Z" />
	<path id="Layer" class="shp0" d="M11.05 55.28C11.19 55.43 11.34 55.58 11.49 55.73L11.51 55.76L11.87 56.13C11.65 55.8 11.34 55.55 11.01 55.12C10.53 54.54 10.12 53.91 9.8 53.24C9.7 53.4 9.96 53.79 10.21 54.17C10.47 54.56 10.77 54.92 10.67 55.09L11.08 55.42C11.9 56.47 11.44 56.36 11.39 56.23C11.6 56.59 11.87 56.91 12.18 57.19L12.14 57.12C10.94 55.82 12.32 56.83 11.05 55.28Z" />
	<path id="Layer" class="shp0" d="M12.39 57.33C12.45 57.38 12.45 57.37 12.39 57.33L12.39 57.33Z" />
	<path id="Layer" class="shp0" d="M11.49 55.73L11.48 55.7L11.49 55.73Z" />
	<path id="Layer" class="shp0" d="M12.39 57.33L12.36 57.32L12.15 57.12L12.19 57.2C12.25 57.26 12.33 57.32 12.41 57.37L12.39 57.33Z" />
	<path id="Layer" class="shp0" d="M6.46 49.23C6.16 48.47 6.23 48.39 6.35 48.41C6.47 48.43 6.61 48.53 6.53 48.12L6.3 47.64C6.38 48.11 6.23 48.07 6.15 48.09C6.08 48.11 6.09 48.17 6.12 48.33C6.2 48.64 6.32 48.94 6.46 49.23Z" />
	<path id="Layer" class="shp0" d="M6.91 48.97C7.1 49.37 7.26 49.77 7.4 50.19C7.51 50.52 7.52 50.71 7.35 50.58L7.82 50.94C7.76 50.81 7.72 50.68 7.7 50.54C7.25 49.49 6.92 48.39 6.73 47.26C6.75 47.63 6.81 47.99 6.9 48.35C6.99 48.8 7.09 49.18 6.91 48.97Z" />
	<path id="Layer" class="shp0" d="M7.8 50.94L7.89 51L7.68 50.54C7.7 50.67 7.74 50.81 7.8 50.94Z" />
	<path id="Layer" class="shp0" d="M3.74 24.09C3.85 24.25 3.53 25.32 3.4 25.73C3.71 24.84 3.93 24.49 4.14 24.33L4.58 23.07C4.04 24.27 4.47 22.16 3.74 24.09Z" />
	<path id="Layer" class="shp0" d="M3.4 25.73C3.47 26.14 3.61 25.91 3.8 25.39L3.76 25.33L3.92 25.01C3.98 24.8 4.04 24.57 4.14 24.34C3.93 24.49 3.71 24.85 3.4 25.73Z" />
	<path id="Layer" class="shp0" d="M3.8 25.39L3.92 25.01L3.76 25.33L3.8 25.39Z" />
	<path id="Layer" class="shp0" d="M6.68 18.43L6.77 18.61C6.56 18.84 6.37 19.1 6.2 19.36C6.02 19.65 5.85 19.99 5.68 20.3C5.44 20.82 5.15 21.31 4.82 21.77L4.95 22.22C5.16 21.8 5.33 21.58 5.42 21.79C5.5 21.29 5.63 20.8 5.76 20.31L6.32 19.9L6.42 19.69C6.45 18.98 7.95 16.84 6.68 18.43Z" />
	<path id="Layer" class="shp0" d="M6.44 19.8C6.43 19.76 6.42 19.72 6.42 19.68L6.31 19.89L6.44 19.8Z" />
	<path id="Layer" class="shp0" d="M4.95 22.22C4.81 22.5 4.68 22.79 4.58 23.09L4.95 22.22Z" />
	<path id="Layer" class="shp0" d="M5.43 43.54C5.43 43.68 5.43 43.82 5.42 43.99C5.48 44.48 5.52 44.99 5.59 45.48C5.53 44.82 5.48 44.18 5.43 43.54Z" />
	<path id="Layer" class="shp0" d="M4.86 43.47C4.85 42.86 4.79 42.27 4.8 41.66C4.67 41.63 4.66 41.84 4.7 42.18C4.79 42.6 4.84 43.03 4.86 43.47Z" />
	<path id="Layer" class="shp0" d="M5.76 29.59C5.64 29.19 5.4 30.47 5.31 30.73C5.34 31.24 5.41 31.2 5.48 30.92C5.52 30.78 5.57 30.58 5.6 30.34L5.76 29.59Z" />
	<path id="Layer" class="shp0" d="M8.3 22.41L8.64 21.55L8.3 22.41Z" />
	<path id="Layer" class="shp0" d="M8.65 21.55L8.83 21.1C8.87 20.87 8.93 20.64 9 20.42C8.75 20.76 8.54 21.11 8.31 21.46C8.08 21.81 7.84 22.16 7.64 22.53L8.23 22.56L7.75 23.61C7.83 23.51 8.06 22.99 8.26 22.55L8.3 22.41L8.65 21.55Z" />
	<path id="Layer" class="shp0" d="M24.96 5.25C25.26 5.14 25.56 5.01 25.85 4.86L25.76 4.88L24.99 5.23L24.96 5.25Z" />
</svg>