<svg width="7" height="174" preserveAspectRatio="none" viewBox="0 0 7 174" fill="none" xmlns="http://www.w3.org/2000/svg">
<path d="M6.3528 35.4747C6.72463 51.1897 6.04165 70.3024 6.43059 86.1583C6.95643 105.167 6.95332 125.724 6.99999 144.709C6.71685 144.709 6.29057 143.154 6.1521 144.739C5.74449 151.088 5.1782 151.118 4.61346 151.143C4.33031 151.143 4.60257 146.38 4.32408 147.978C4.31008 143.221 4.15606 135.281 3.88225 140.056C3.60066 141.654 3.90092 148.014 3.47931 149.6C3.05769 151.186 2.6283 148.045 2.20825 149.649L2.22692 156.016C1.94999 157.62 1.37436 154.461 1.37903 156.059C1.10988 160.846 1.27635 167.213 1.30279 173.58C1.01965 173.58 0.744277 175.214 0.590257 172.037C0.0659677 116.284 -0.383645 58.7809 0.506253 3.03451C0.699168 -3.32007 1.22501 1.54075 1.61084 6.36484C1.48171 4.75477 1.90488 4.80987 1.77731 3.1998C2.19425 3.2549 2.87879 6.52401 2.97213 12.9031L3.00947 8.13409C3.16505 6.56075 3.43264 8.18306 3.71579 8.21979C3.70179 9.80538 3.68934 11.3971 3.83091 11.4093C3.97249 11.4216 4.25408 11.4644 4.39566 11.4767L4.447 5.13433C4.43455 6.71992 4.42055 8.3055 4.56212 8.32387C4.7037 8.34223 4.98529 8.37284 5.12686 8.39121C5.24043 11.5807 4.92617 16.3008 5.04441 19.4903L5.46135 19.5393C5.62626 16.3803 5.51736 11.5807 5.54381 8.44631C5.67294 10.0503 5.81451 10.0625 6.0961 10.0992C6.20189 14.8621 5.74294 19.5699 6.13344 24.3634L6.17389 19.6372C6.86154 22.8574 6.23923 30.7118 6.3528 35.4747Z" fill="#FFD04E"/>
</svg>
