<svg width="24" height="24" viewBox="0 0 24 24" fill="none" xmlns="http://www.w3.org/2000/svg">
<mask id="path-1-inside-1" fill="white">
<path fill-rule="evenodd" clip-rule="evenodd" d="M8 8.00363C8 6.35554 9.88153 5.41478 11.2 6.40363L16.986 10.7431C18.0527 11.5431 18.0527 13.1431 16.986 13.9431L11.2 18.2826C9.88153 19.2715 8 18.3307 8 16.6826V8.00363Z"/>
</mask>
<path d="M16.986 10.7431L16.086 11.9431L16.986 10.7431ZM16.986 13.9431L17.886 15.1431L16.986 13.9431ZM17.886 9.54313L12.1 5.20363L10.3 7.60363L16.086 11.9431L17.886 9.54313ZM12.1 19.4826L17.886 15.1431L16.086 12.7431L10.3 17.0826L12.1 19.4826ZM6.5 8.00363V16.6826H9.5V8.00363H6.5ZM10.3 17.0826C9.97038 17.3299 9.5 17.0947 9.5 16.6826H6.5C6.5 19.5668 9.79267 21.2131 12.1 19.4826L10.3 17.0826ZM12.1 5.20363C9.79268 3.47314 6.5 5.11947 6.5 8.00363H9.5C9.5 7.59161 9.97038 7.35642 10.3 7.60363L12.1 5.20363ZM16.086 11.9431C16.3527 12.1431 16.3527 12.5431 16.086 12.7431L17.886 15.1431C19.7527 13.7431 19.7527 10.9431 17.886 9.54313L16.086 11.9431Z" fill="#2D3E4E" mask="url(#path-1-inside-1)"/>
<path d="M23.625 12C23.625 18.4203 18.4203 23.625 12 23.625C5.57969 23.625 0.375 18.4203 0.375 12C0.375 5.57969 5.57969 0.375 12 0.375C18.4203 0.375 23.625 5.57969 23.625 12Z" stroke="#2D3E4E" stroke-width="0.75"/>
</svg>
