<svg xmlns="http://www.w3.org/2000/svg" viewBox="0 0 35 47" width="35" height="47">
	<defs>
		<clipPath clipPathUnits="userSpaceOnUse" id="cp1">
			<path d="M38.51 -35.12C38.27 -35.28 38.04 -35.42 37.81 -35.57C39.1 -35.11 39.34 -34.95 39.19 -34.91C56.17 -29.4 69.23 -17 75.97 -1.72C76.06 -1.69 76.25 -1.37 76.71 -0.19C76.65 -0.26 76.59 -0.34 76.53 -0.41C77.03 0.81 77.5 2.05 77.92 3.31C78.03 3.42 78.21 3.83 78.56 5.01C78.51 4.92 78.45 4.84 78.39 4.75C79.33 7.79 80.03 10.92 80.48 14.1C80.5 14.12 80.52 14.16 80.54 14.22C80.72 15.11 80.81 16.01 80.81 16.92C80.92 18.2 81 19.49 81.03 20.79C81.08 20.82 81.11 20.91 81.14 21.11C81.17 21.44 81.19 21.76 81.18 22.09C81.15 22.59 81.12 23.22 81.05 24.11C81.04 23.98 81.04 23.87 81.03 23.77C80.92 28.15 80.32 32.58 79.19 37.01C77.76 42.64 75.56 47.87 72.73 52.63C72.61 52.96 72.39 53.45 72.13 54C71.68 54.84 71.16 55.88 70.72 56.63C70.29 57.39 70.01 57.93 70.19 57.9C69.22 58.68 68.84 59.52 67.96 60.33C63.63 66.44 58.05 71.56 51.58 75.37C44.98 79.24 37.8 82.05 30.31 83.69C30.28 83.72 30.25 83.75 30.23 83.79C30.21 83.83 30.21 83.88 30.21 83.92C30.21 83.97 30.22 84.01 30.23 84.05C30.25 84.09 30.28 84.13 30.31 84.16C30.27 84.15 30.24 84.14 30.2 84.13C29.3 83.97 28.4 83.77 27.52 83.52C27.5 83.52 27.48 83.52 27.46 83.53C27.45 83.52 27.44 83.52 27.43 83.52C23.1 84.11 18.72 84.32 14.35 84.17C14.31 84.19 14.27 84.22 14.24 84.26C14.22 84.3 14.19 84.35 14.18 84.39C14.17 84.44 14.17 84.49 14.17 84.54C14.18 84.59 14.2 84.63 14.22 84.68L14.11 84.68C13.26 84.3 12.44 83.89 11.63 83.43C10.52 82.76 9.46 82.01 8.46 81.18C8.17 80.94 7.89 80.69 7.63 80.42C7.03 80.29 6.43 80.15 5.84 79.99C-0.65 78.33 -6.62 75.69 -11.96 72.27C-12.71 71.96 -13.45 71.65 -14.15 71.4C-15.08 70.72 -15.82 70.2 -16.43 69.72C-17.04 69.24 -17.58 68.8 -18.13 68.35C-19.64 67.05 -21.08 65.66 -22.44 64.2C-22.45 64.53 -22.93 64.41 -23.65 63.93C-24.65 63.26 -25.59 62.5 -26.46 61.67C-27.56 60.69 -28.69 59.49 -29.8 58.3C-30.91 57.11 -31.89 55.88 -32.69 54.84C-33.18 53.89 -33.61 52.91 -34.03 51.93C-36.58 48.53 -38.74 44.85 -40.44 40.97C-42.58 36.06 -43.92 30.85 -44.43 25.54C-44.42 24.17 -44.53 22.89 -44.52 21.78C-44.57 20.82 -44.4 19.87 -44.01 18.99L-43.98 19.52C-43.87 19.09 -43.76 18.66 -43.65 18.22C-43.65 18.2 -43.65 18.17 -43.65 18.14L-43.64 18.11L-43.63 17.24C-43.63 17.22 -43.64 17.2 -43.64 17.17L-43.64 17.02C-43.66 16.8 -43.66 16.59 -43.64 16.37L-43.64 16.23C-43.6 15.87 -43.59 15.52 -43.6 15.16L-43.58 14.95C-43.59 14.89 -43.61 14.83 -43.64 14.77C-43.69 14.65 -43.77 14.54 -43.86 14.46C-43.76 14.11 -43.63 13.77 -43.48 13.44L-43.47 13.37C-43.47 13.36 -43.47 13.36 -43.47 13.36C-43.41 12.43 -43.27 11.5 -43.14 10.54L-42.43 7.19C-42.3 6.32 -41.94 5.51 -41.39 4.83L-41.51 5.3L-40.59 3.49C-41.16 3.38 -39.78 1.42 -40.4 0.8C-39.75 -0.43 -39.36 -0.25 -38.52 -2.28L-38.71 -1.8C-38.17 -2.79 -38.05 -2.43 -37.88 -2.36C-37.72 -2.29 -37.5 -2.47 -36.58 -4.43C-36.54 -5.14 -36.48 -5.9 -36.38 -6.64L-35.13 -7.98C-35.39 -7.33 -35.69 -6.69 -36.03 -6.07C-35.05 -7.83 -34.49 -8.39 -34.08 -8.61C-33.65 -8.82 -33.39 -8.69 -32.95 -9.02C-33.79 -7.82 -34.54 -6.51 -35.35 -5.14C-35.35 -5.11 -35.36 -5.08 -35.36 -5.05C-34.53 -6.46 -33.76 -7.8 -32.9 -9.03C-32.88 -9.05 -32.86 -9.06 -32.84 -9.08C-31.98 -10.41 -31.02 -11.68 -30.06 -13.01L-30.06 -13C-29.45 -13.78 -28.88 -14.6 -28.21 -15.43C-27.55 -16.26 -26.89 -17.17 -26.11 -18.08C-26.11 -18.08 -26.11 -18.08 -26.11 -18.09C-26.9 -17.19 -27.54 -16.26 -28.22 -15.44C-28.91 -14.62 -29.47 -13.77 -30.08 -13L-29.91 -13.96C-26.29 -18.44 -23.18 -21.08 -18.44 -25.28C-18.32 -24.48 -15.24 -27.09 -12.99 -28.52C-13.22 -28.36 -13.35 -28.23 -13.24 -28.22C-13.43 -27.88 -13.4 -27.77 -13.1 -27.87C-12.4 -28.33 -11.69 -28.78 -10.97 -29.22C-10.66 -29.48 -10.17 -29.84 -9.54 -30.24C-9.46 -30.22 -9.37 -30.21 -9.29 -30.19C-8.39 -30.7 -7.48 -31.18 -6.55 -31.64L-6.11 -32.69C-5.08 -32.97 -5.5 -32.46 -5.64 -32.1C-5.65 -32.09 -5.65 -32.08 -5.65 -32.07C-3.51 -33.09 -1.31 -33.98 0.95 -34.74C1.05 -34.8 1.15 -34.85 1.25 -34.9L1.21 -34.83C1.21 -34.83 1.21 -34.83 1.21 -34.83L1.25 -34.9L1.53 -35.05L2.09 -35.13C2.12 -35.14 2.15 -35.14 2.18 -35.15C4.22 -35.78 6.29 -36.32 8.39 -36.74C8.58 -36.82 8.77 -36.89 8.97 -36.95C9.18 -36.96 9.37 -36.96 9.53 -36.95C15.13 -37.97 20.93 -38.2 26.8 -37.56C26.69 -37.63 26.61 -37.71 26.55 -37.79C26.94 -37.66 27.34 -37.54 27.75 -37.45C28.3 -37.38 28.84 -37.31 29.39 -37.23C29.8 -37.21 30.22 -37.25 30.62 -37.34C30.35 -37.17 31.39 -37.02 32.14 -36.9C32.2 -36.83 32.27 -36.76 32.34 -36.7C32.35 -36.7 32.36 -36.7 32.37 -36.7C32.29 -36.76 32.21 -36.83 32.14 -36.92L32.2 -36.9C32.21 -36.9 32.22 -36.89 32.23 -36.89C32.67 -36.82 32.96 -36.72 32.82 -36.68C32.94 -36.62 33.07 -36.57 33.2 -36.52C33.67 -36.42 34.14 -36.31 34.61 -36.2C35.01 -36.16 35.42 -36.17 35.82 -36.21C35.36 -35.98 38.71 -35.43 37.58 -35.4C37.89 -35.31 38.2 -35.22 38.51 -35.12ZM-34.97 -7.22L-34.82 -6.91C-35.17 -6.51 -35.49 -6.07 -35.78 -5.62C-36.1 -5.11 -36.39 -4.53 -36.68 -3.99C-37.09 -3.11 -37.59 -2.26 -38.17 -1.47L-37.95 -0.69C-38.19 -0.2 -38.4 0.29 -38.58 0.8C-38.8 1.28 -38.92 1.45 -39.01 1.47C-38.93 1.52 -38.81 1.42 -38.56 0.88L-38.54 0.8L-38.41 0.52C-38.28 0.18 -38.13 -0.16 -37.97 -0.49L-37.9 -0.66L-38.12 -1.44C-37.55 -2.23 -37.05 -3.08 -36.63 -3.96C-36.34 -4.51 -36.05 -5.08 -35.74 -5.59C-35.45 -6.04 -35.13 -6.48 -34.77 -6.89L-34.93 -7.2C-34.45 -7.79 -34.2 -8.08 -34.1 -8.16C-34.06 -8.31 -34.27 -8.1 -34.97 -7.22ZM-37.09 -1.42C-37.01 -1.84 -36.93 -2.25 -36.83 -2.66C-36.93 -2.25 -37.02 -1.84 -37.09 -1.43C-37.09 -1.43 -37.09 -1.43 -37.09 -1.42ZM-36.07 -3.68L-36.07 -3.67L-35.57 -4.64L-35.58 -4.63L-36.07 -3.68ZM-40.02 2.54C-39.84 2.82 -40.38 4.65 -40.61 5.36L-40.63 5.42C-40.59 5.66 -40.52 5.75 -40.44 5.72C-40.49 5.68 -40.53 5.57 -40.56 5.38C-40.02 3.88 -39.66 3.27 -39.3 2.99C-39.3 2.99 -39.3 2.99 -39.3 2.98C-39.66 3.26 -40.02 3.87 -40.56 5.38C-40.33 4.69 -39.79 2.83 -39.97 2.56C-39.55 1.44 -39.35 1.11 -39.24 1.08C-39.34 1 -39.53 1.23 -40.02 2.54ZM-39.74 4.98L-39.87 4.79C-39.87 4.81 -39.88 4.82 -39.88 4.83L-39.74 4.98ZM-38.12 2.21C-37.79 1.78 -37.53 1.3 -37.33 0.8C-37 0.11 -36.59 -0.91 -36.05 -2.32L-36.05 -2.33C-36.58 -0.92 -37 0.1 -37.33 0.78C-37.52 1.29 -37.79 1.76 -38.11 2.2C-38.54 2.73 -38.87 2.64 -39.28 2.96L-39.29 2.98C-38.87 2.65 -38.55 2.75 -38.12 2.21ZM-41.64 12.33C-41.78 12.9 -41.88 13.49 -41.95 14.07C-42.11 14.8 -42.22 14.94 -42.32 14.89C-42.24 14.97 -42.14 14.93 -42.02 14.49C-42 14.35 -41.98 14.21 -41.95 14.07C-41.85 13.68 -41.78 13.15 -41.64 12.35C-41.42 11.5 -41.18 11.03 -40.95 11.36C-40.95 10.41 -40.98 9.45 -40.91 8.5L-39.83 7.32C-39.84 7.32 -39.84 7.32 -39.84 7.31L-40.92 8.48C-40.98 9.43 -40.95 10.4 -40.95 11.34C-41.18 11.02 -41.43 11.48 -41.64 12.33L-41.64 12.33ZM-43.06 16.28C-42.76 16.53 -42.98 18.62 -43.01 19.45C-42.93 19.64 -42.85 19.75 -42.79 19.78C-42.85 19.73 -42.91 19.63 -42.98 19.47C-42.95 18.64 -42.73 16.55 -43.03 16.31C-42.83 14.78 -42.69 14.49 -42.57 14.55C-42.7 14.43 -42.84 14.62 -43.06 16.28ZM-27.19 58.79C-26.97 58.95 -26.78 59.11 -26.58 59.28C-26.57 59.28 -26.56 59.28 -26.55 59.28L-26.52 59.31C-26.49 59.3 -26.46 59.28 -26.45 59.25C-26.45 59.25 -26.45 59.25 -26.45 59.25C-26.47 59.27 -26.5 59.27 -26.53 59.27C-26.76 59.09 -26.96 58.92 -27.15 58.77C-27.16 58.77 -27.17 58.78 -27.18 58.78L-27.18 58.78C-27.19 58.79 -27.19 58.79 -27.19 58.79ZM-27.08 58.46C-27.06 58.54 -27.06 58.59 -27.06 58.64C-27.05 58.6 -27.05 58.55 -27.06 58.48C-27.06 58.47 -27.07 58.47 -27.08 58.46ZM-20.57 -22.02C-20.87 -21.82 -21.04 -21.76 -21.1 -21.82C-21.05 -21.75 -20.9 -21.8 -20.62 -21.98C-20.61 -21.99 -20.59 -22.01 -20.57 -22.02ZM-21.05 -22.21C-21.07 -22.21 -21.08 -22.22 -21.09 -22.23C-21.09 -22.21 -21.08 -22.2 -21.06 -22.2C-21.05 -22.2 -21.05 -22.2 -21.05 -22.21ZM-20.83 -22.57C-21.21 -22.24 -21.62 -21.85 -22.03 -21.45C-21.67 -21.79 -21.32 -22.12 -20.98 -22.43C-20.93 -22.47 -20.88 -22.52 -20.83 -22.57ZM-24.19 -19.3C-25.14 -18.41 -25.84 -17.76 -26.07 -18.01C-25.85 -17.73 -25.11 -18.35 -24.19 -19.3C-24.09 -19.39 -23.99 -19.49 -23.89 -19.6C-23.99 -19.5 -24.09 -19.4 -24.19 -19.3ZM45.49 78.29C46.87 77.65 48.28 76.98 49.59 76.19C49.7 76.12 49.82 76.05 49.93 75.98C49.8 76.06 49.67 76.13 49.54 76.2C48.21 76.93 46.85 77.67 45.44 78.3C40.99 80.35 36.32 81.87 31.52 82.84C36.34 81.87 41.02 80.34 45.49 78.29ZM53.4 73.79C54.63 72.97 55.87 72.14 56.89 71.18C56.97 71.11 57.04 71.04 57.12 70.97C57.03 71.05 56.94 71.12 56.84 71.19C55.71 72.08 54.55 72.93 53.35 73.8C53.22 73.89 53.08 73.99 52.95 74.08C53.1 73.98 53.25 73.88 53.4 73.79ZM62.85 66.19C62.65 66.19 63.12 65.78 63.71 65C64.3 64.22 65.15 63.3 65.74 62.43C66.12 61.9 66.45 61.42 66.64 61.09C66.55 61.2 66.45 61.31 66.36 61.41C66.18 61.69 65.95 62.02 65.69 62.38C65.09 63.27 64.25 64.19 63.66 64.95C63.1 65.66 62.69 66.16 62.82 66.21C62.83 66.2 62.84 66.2 62.85 66.19ZM32.58 -36.66C32.64 -36.66 32.7 -36.66 32.76 -36.67C32.76 -36.67 32.76 -36.68 32.75 -36.68C32.69 -36.67 32.63 -36.66 32.56 -36.66C32.57 -36.66 32.57 -36.66 32.58 -36.66ZM-26.1 60.72C-26.68 59.95 -26.88 59.58 -26.87 59.42C-26.87 59.37 -26.85 59.34 -26.82 59.32C-26.86 59.34 -26.89 59.37 -26.89 59.43C-26.9 59.58 -26.73 59.91 -26.23 60.57C-26.19 60.62 -26.14 60.67 -26.1 60.72ZM-23.74 62.7L-23.65 62.73C-23.63 62.73 -23.61 62.73 -23.59 62.72C-23.62 62.73 -23.67 62.72 -23.74 62.7ZM-23.74 62.7L-23.78 62.69C-23.76 62.69 -23.75 62.69 -23.74 62.7ZM-17.42 67.57L-17.42 67.58C-16.92 67.96 -16.46 68.39 -16.03 68.84L-16.02 68.85C-15.36 69.82 -14.51 70.66 -13.53 71.31C-13.53 71.31 -13.54 71.3 -13.54 71.3C-14.49 70.65 -15.32 69.84 -15.97 68.9C-15.99 68.88 -16.01 68.87 -16.02 68.85C-16.46 68.39 -16.92 67.96 -17.42 67.57ZM32.7 -36.7C32.56 -36.76 32.42 -36.83 32.26 -36.88C32.41 -36.81 32.56 -36.74 32.7 -36.7ZM1.53 -35.06L1.25 -34.9L1.74 -35.72C2.68 -35.83 2.3 -35.44 2.1 -35.14L1.53 -35.06ZM-17.44 -25.04C-17.69 -24.78 -17.93 -24.54 -18.15 -24.33C-17.93 -24.54 -17.69 -24.78 -17.43 -25.03C-17.31 -25.02 -17.19 -25.01 -17.08 -25C-17.07 -25 -17.07 -25 -17.07 -25C-17.19 -25.01 -17.31 -25.02 -17.44 -25.04ZM-18.97 -23.44C-18.96 -23.45 -18.96 -23.46 -18.95 -23.46C-18.85 -23.59 -18.71 -23.75 -18.53 -23.94C-18.72 -23.74 -18.87 -23.57 -18.97 -23.44ZM-18.9 -24.03C-18.9 -24.03 -18.9 -24.03 -18.9 -24.03C-19.48 -23.69 -20.03 -23.29 -20.54 -22.85C-20.41 -22.98 -20.28 -23.11 -20.14 -23.22C-20.28 -23.11 -20.41 -22.98 -20.54 -22.85C-20.03 -23.29 -19.48 -23.69 -18.9 -24.03ZM-42.45 9.97L-42.64 11.08C-42.64 11.06 -42.63 11.03 -42.62 11.01C-42.54 10.67 -42.49 10.32 -42.45 9.97ZM-40.3 3.85L-40.34 3.92C-40.48 4.67 -40.67 5.41 -40.91 6.14L-40.65 5.38C-40.51 4.87 -40.39 4.36 -40.3 3.85ZM-41.92 10.5C-42.01 10.48 -42.09 10.41 -42.18 10.42C-42.1 10.42 -42.03 10.48 -41.95 10.5C-41.91 10.51 -41.88 10.51 -41.85 10.51C-41.87 10.51 -41.9 10.5 -41.92 10.5ZM-36.06 -6.03C-36.05 -6.04 -36.04 -6.06 -36.03 -6.07C-36.04 -6.06 -36.05 -6.04 -36.06 -6.03ZM-38.26 -2.93C-38.35 -2.69 -38.44 -2.48 -38.52 -2.28L-38.26 -2.93ZM-32.98 49.88C-33 49.92 -33.02 49.95 -33.04 49.96C-33.01 49.95 -32.99 49.93 -32.97 49.9C-32.97 49.89 -32.98 49.88 -32.98 49.88ZM-30.13 -12.75L-30.13 -12.76C-30.2 -12.64 -30.27 -12.54 -30.34 -12.43C-30.27 -12.53 -30.2 -12.64 -30.13 -12.75ZM-43.5 17.37C-43.49 17.37 -43.48 17.37 -43.47 17.37C-43.48 17.37 -43.49 17.37 -43.5 17.37ZM-29.48 54.16C-29.48 54.17 -29.48 54.17 -29.48 54.17C-29.16 54.65 -28.87 55.14 -28.62 55.65C-28.62 55.65 -28.61 55.66 -28.61 55.66C-28.61 55.66 -28.61 55.66 -28.61 55.67C-28.01 56.55 -27.5 57.5 -27.1 58.49C-27.1 58.5 -27.1 58.5 -27.1 58.5C-27.5 57.5 -28.01 56.55 -28.61 55.66C-28.87 55.14 -29.16 54.64 -29.48 54.16ZM-34.52 45.42C-34.52 45.42 -34.52 45.42 -34.52 45.42C-34.46 45.49 -34.42 45.52 -34.39 45.52C-34.42 45.52 -34.46 45.49 -34.52 45.42ZM-33.77 48.2L-33.74 48.22C-33.69 48.26 -33.65 48.27 -33.62 48.27C-33.65 48.27 -33.7 48.25 -33.77 48.2ZM-32.94 48.85L-32.83 48.93L-32.83 48.93L-32.94 48.84L-32.94 48.85ZM-33.2 48.04C-33.95 46.25 -34.5 44.38 -34.83 42.47C-34.83 42.48 -34.83 42.48 -34.83 42.49C-34.5 44.39 -33.95 46.26 -33.2 48.05C-33.2 48.05 -33.2 48.04 -33.2 48.04ZM-32.13 50.74C-32.46 49.8 -32.74 48.85 -33.01 47.9C-33.03 47.9 -33.04 47.89 -33.05 47.89C-32.83 48.67 -32.6 49.45 -32.34 50.23C-32.26 50.4 -32.19 50.57 -32.13 50.74ZM-32.13 50.74C-32.08 50.87 -32.04 51 -31.99 51.13C-32.03 51 -32.08 50.87 -32.13 50.74ZM-35.82 43.9C-35.83 43.9 -35.85 43.91 -35.86 43.92C-35.85 43.92 -35.84 43.91 -35.83 43.91C-35.72 43.88 -35.52 43.92 -35.54 43.49C-35.54 43.91 -35.76 43.87 -35.82 43.9ZM-35.28 45.86C-35.7 44.82 -35.69 44.52 -35.59 44.45C-35.71 44.5 -35.72 44.77 -35.33 45.77C-35.32 45.8 -35.3 45.83 -35.28 45.86ZM-35.18 43.95L-35.58 43.12C-35.57 43.13 -35.57 43.14 -35.57 43.16L-35.18 43.96C-35.15 44.11 -35.14 44.22 -35.14 44.3C-35.13 44.22 -35.14 44.11 -35.18 43.95ZM-36.59 34C-36.62 33.96 -36.65 33.95 -36.66 33.95C-36.65 33.95 -36.62 33.96 -36.59 34L-36.67 34.44C-36.66 34.45 -36.66 34.45 -36.66 34.45L-36.59 33.98L-36.59 34ZM-36.67 34.47C-36.67 34.48 -36.67 34.48 -36.67 34.48L-36.66 34.46C-36.66 34.46 -36.66 34.46 -36.66 34.45L-36.67 34.47ZM-36.67 34.48L-36.86 35.74C-36.5 36.55 -36.42 36.45 -36.45 36.07C-36.49 35.69 -36.61 34.97 -36.67 34.48ZM-37.06 36.07C-37.06 36.07 -37.06 36.07 -37.06 36.07C-36.99 37.03 -36.91 37.99 -36.82 38.98C-36.81 39.11 -36.79 39.24 -36.77 39.37C-36.88 38.26 -36.98 37.15 -37.06 36.06L-37.06 36.07ZM-38.32 33.73C-38.21 34.3 -38.13 34.88 -38.08 35.46C-38.13 34.88 -38.21 34.29 -38.32 33.72C-38.34 33.58 -38.35 33.44 -38.36 33.33C-38.35 33.45 -38.34 33.58 -38.32 33.73ZM-38.04 35.94C-38.07 34.89 -38.16 33.86 -38.14 32.83L-38.14 32.83C-38.17 33.86 -38.07 34.87 -38.04 35.9C-38.04 35.91 -38.04 35.93 -38.04 35.94ZM-37.32 27.78C-37.27 27.92 -37.23 28.04 -37.19 28.14C-37.23 28.04 -37.27 27.92 -37.32 27.77C-37.31 27.72 -37.3 27.64 -37.3 27.55C-37.31 27.65 -37.31 27.73 -37.32 27.79L-37.32 27.78ZM-36.51 12.04C-36.53 11.95 -36.56 11.91 -36.59 11.91C-36.56 11.92 -36.53 11.96 -36.51 12.04L-36.77 13.32C-36.77 13.33 -36.78 13.33 -36.78 13.34C-36.77 13.33 -36.77 13.32 -36.77 13.31L-36.5 12.02L-36.51 12.04ZM-36.98 14.31C-36.96 14.26 -36.95 14.2 -36.94 14.14C-36.95 14.21 -36.97 14.27 -36.98 14.33C-37.01 14.43 -37.04 14.52 -37.06 14.58C-37.04 14.51 -37.01 14.43 -36.98 14.31ZM-39.91 7.16C-40.13 6.27 -39.16 3.61 -39.24 3.47C-39.21 3.73 -40.14 6.31 -39.91 7.16ZM-36.96 28.45C-36.85 28.24 -36.95 26.94 -37.01 25.7C-36.95 26.94 -36.86 28.23 -36.96 28.45ZM-38.36 33.11C-38.36 33.13 -38.36 33.15 -38.36 33.16C-38.36 33.15 -38.36 33.13 -38.36 33.11ZM-34.94 8.81L-35.1 9.71L-34.94 8.81ZM-35.37 11.4C-35.31 10.82 -35.2 10.25 -35.1 9.69C-35.2 10.25 -35.31 10.82 -35.37 11.4ZM-13.88 69.76L-14.18 69.53L-13.88 69.76ZM17.6 -36.32L17.98 -36.33L17.6 -36.32ZM46.28 -29.55C46.28 -29.55 46.43 -29.47 46.28 -29.55ZM-32.41 47.33L-32.31 47.54L-32.41 47.33ZM-31.23 -2.57L-31.54 -1.79L-31.23 -2.57ZM-26.65 57.07L-26.67 57.02L-26.65 57.07ZM-32.14 -0.33L-31.55 -1.81L-32.14 -0.33Z" />
		</clipPath>
		<clipPath clipPathUnits="userSpaceOnUse" id="cp2">
			<path d="M32.7 22.03C33.77 22.83 33.77 24.43 32.7 25.23L5.2 45.85C3.88 46.84 2 45.9 2 44.25L2 3C2 1.36 3.88 0.41 5.2 1.4L32.7 22.03Z" />
		</clipPath>
	</defs>
	<style>
		tspan { white-space:pre }
		.shp0 { fill: #2d3e4e } 
	</style>
	<g id="Clip-Path" clip-path="url(#cp1)">
		<g id="Layer">
			<g id="Clip-Path" clip-path="url(#cp2)">
				<path id="Layer" fill-rule="evenodd" class="shp0" d="M6.4 47.45C3.76 49.43 0 47.55 0 44.25L0 3C0 -0.29 3.76 -2.17 6.4 -0.2L33.9 20.43C36.03 22.03 36.03 25.23 33.9 26.83L6.4 47.45ZM4 44.25L31.5 23.63L4 3L4 44.25ZM32.7 25.23L31.5 23.63L32.7 25.23ZM5.2 45.85L6.4 47.45L5.2 45.85Z" />
			</g>
		</g>
	</g>
</svg>