<svg width="23" height="31" viewBox="0 0 23 31" fill="none" xmlns="http://www.w3.org/2000/svg">
<path opacity="0.3" fill-rule="evenodd" clip-rule="evenodd" d="M11.5147 0.360107C5.6152 0.360107 0.84375 5.13156 0.84375 11.0311C0.84375 19.0343 11.5147 30.8486 11.5147 30.8486C11.5147 30.8486 22.1857 19.0343 22.1857 11.0311C22.1857 5.13156 17.4143 0.360107 11.5147 0.360107ZM7.70366 11.0311C7.70366 8.92628 9.40993 7.22001 11.5147 7.22001C12.8763 7.22001 14.1344 7.94639 14.8152 9.12554C15.496 10.3047 15.496 11.7575 14.8152 12.9366C14.1344 14.1157 12.8763 14.8421 11.5147 14.8421C9.40993 14.8421 7.70366 13.1359 7.70366 11.0311Z" fill="#2D3E4E"/>
<ellipse cx="11.7207" cy="11.2371" rx="5.43849" ry="5.43849" fill="white"/>
</svg>
